<svg id="Layer_1" data-name="Layer 1" xmlns="http://www.w3.org/2000/svg" xmlns:xlink="http://www.w3.org/1999/xlink" viewBox="0 0 1603.2 842.4"><defs><style>.cls-1{fill:#fff;}.cls-2{fill:url(#linear-gradient);}</style><linearGradient id="linear-gradient" x1="937.27" y1="473.91" x2="1377.68" y2="473.91" gradientUnits="userSpaceOnUse"><stop offset="0" stop-color="#fff"/><stop offset="1"/></linearGradient></defs><title>air</title><path class="cls-1" d="M-551.52,864.76V22.36H44.16v842.4Zm409.75-236.27a230.62,230.62,0,0,0,22.44-13.65A207.77,207.77,0,0,0-93,593.42c5.17-5,10.09-10.25,14.88-15.6a224.53,224.53,0,0,0,32.3-47.63,232.6,232.6,0,0,0,15.45-38.1,241.84,241.84,0,0,0,10.82-71.42A264.05,264.05,0,0,0-21,391.05a245.72,245.72,0,0,0-9.42-45.14,235.88,235.88,0,0,0-28.92-61c-2.73-4.1-5.62-8.1-8.45-12.17.12-.3.23-.6.35-.89A22.3,22.3,0,0,0-65.77,261c-.16-1.88-1-2.58-2.84-2.34a7.19,7.19,0,0,0-2,.77c-2.82,1.29-4.35.92-5.69-1.83a36.56,36.56,0,0,1-2.8-7.33,14.32,14.32,0,0,0-5.46-8.15c-1.95-1.52-3.95-3-5.83-4.61-2.62-2.26-4.12-5.09-3.65-8.65a60.27,60.27,0,0,1,1.2-6.57,42.38,42.38,0,0,0,1.55-13.75c-.26-3-1.93-4.92-4.68-6.13-2.48-1.08-3.89.49-5.47,1.81l-.17.17c-1.46,1.66-3.35,2-5.44,1.87a13.29,13.29,0,0,1-6.86-2.59c-3.13-2.21-6.16-4.56-9.23-6.86-2.36-1.78-4.62-3.78-7.51-4.6a59.37,59.37,0,0,0-7.26-1.44c-3.93-.59-7.17-2.23-9.16-5.78a13.11,13.11,0,0,0-8.88-6.67c-3.85-.93-6.66-3.09-6.36-7.7a3.19,3.19,0,0,0-.87-1.88,11.72,11.72,0,0,0-5.38-3.38c-1-.38-2.17-.57-3.19-1-1.78-.75-2-2.17-.49-3.36.66-.54,1.6-1,1.28-2.07a2.3,2.3,0,0,0-2.08-1.72c-3.69-.41-7.45-.63-10.94.57-3.22,1.1-5.77.62-8.13-1.61a21.83,21.83,0,0,1-1.75-2,24.41,24.41,0,0,0-11.54-7.37c-3.08-1-6.18-.49-9.28-.68a5.85,5.85,0,0,0-5.14,2.5,30,30,0,0,1-3.31,3.78,18.57,18.57,0,0,0-4.59,6c-.93,1.93-1.22,2-3.36,1.76a13.7,13.7,0,0,1-1.64-.35c-2-.49-4-1.06-6-1.47a8.58,8.58,0,0,0-6,.95,29.11,29.11,0,0,1-3,1.59c-2.58,1.09-4.92,1.15-7-1.57-.83-1.07-1.64-2.17-2.55-3.18a15.66,15.66,0,0,0-10.28-5.57c-2.82-.29-4.64,1-5.2,4a6.49,6.49,0,0,0,1.2,5.22,4.58,4.58,0,0,1,1,2.12c.19,2.34-2.73,5.29-5.11,5.41-2,.09-3.52-.84-5.14-1.71-3.85-2.07-7.79-3.06-12.2-1.67a41.13,41.13,0,0,1-8,1.47c-2.61.27-5.27.14-7.9.22-3.52.11-7,.36-10.17,2.2a8.36,8.36,0,0,1-1.56.59,14,14,0,0,0-8.19,6.56,61.53,61.53,0,0,1-4.52,7c-2.36,3.17-5.85,3.64-9.48,3.34-1.59-.13-2.11-1.32-1.43-2.76.31-.64.65-1.27,1-1.92,1-2.07.43-3.48-1.66-4.36a6.74,6.74,0,0,0-6.4.75c-2.25,1.37-4.29,3.06-6.53,4.45a18.13,18.13,0,0,0-7.38,8.86c-1.53,3.78-3.8,7.16-5.59,10.79-1.5,3-4.81,4.33-8.51,3.88a80.86,80.86,0,0,0-8.38-.49c-3.51,0-6.75,1.21-9.9,2.59q-6.45,2.83-12.82,5.92c-4,1.92-5.83,4.82-2.76,9.24.64.91,1.28,1.83,1.85,2.79A21.11,21.11,0,0,1-410,228c.57,1.44.07,2.34-1.47,2.61a6.31,6.31,0,0,1-2.12-.07c-2.62-.43-3.6.08-4.64,2.55a6.9,6.9,0,0,0-.56,1.81c-.39,2.94-.65,5.89-1.08,8.81a31.26,31.26,0,0,1-1.2,5.34c-.6,1.8-1.61,3.47-2.29,5.26-.91,2.37-1.77,4.78-2.46,7.22-.8,2.84-1.35,5.75-2.08,8.61-1.07,4.22-3,7.86-6.92,10.21a26.75,26.75,0,0,0-3.89,3.18c-1.93,1.72-2.15,3.16-1.32,5.55a13,13,0,0,1,.81,4.16,7.86,7.86,0,0,0,2.57,6.41,9.1,9.1,0,0,1,2.38,3.82c.68,2.06,1.21,4.23-.32,6.33a25.68,25.68,0,0,0-1.91,3.86c-2.21.64-2.69,1.37-2.53,3.74a5,5,0,0,1-.21,2.28,230.5,230.5,0,0,0-11,30.08,241.78,241.78,0,0,0-7.51,35.08,190.54,190.54,0,0,0-2.13,25.23c-.06,8.7,0,17.42.5,26.11.38,7,1.2,14,2.21,20.9A233.18,233.18,0,0,0-449,492.71a237.24,237.24,0,0,0,18.12,42.94,232.41,232.41,0,0,0,27,39.45A234.51,234.51,0,0,0-382.74,597a217.81,217.81,0,0,0,29.08,22.23A214.46,214.46,0,0,0-327,633.79a213.47,213.47,0,0,0,45.12,14.74,182.8,182.8,0,0,0,29.33,3.87c14,.59,28.08.42,42.05-1.67a212.92,212.92,0,0,0,30.31-6.61c6.17-1.87,12.23-4.07,18.46-6.15a2.72,2.72,0,0,1,.47.29c3.28,2.91,6.47,5.94,9.87,8.71a42,42,0,0,0,7.13,4.76c2.74,1.43,5.24-.12,5.45-3.17a31.14,31.14,0,0,0-.82-10.95C-140.49,634.64-141.06,631.58-141.77,628.49Z" transform="translate(551.52 -22.36)"/><path class="cls-2" d="M929.43,703c.71,3.1,1.29,6.15,2.14,9.13a31.3,31.3,0,0,1,.82,10.94c-.22,3.05-2.71,4.6-5.46,3.18a42.37,42.37,0,0,1-7.13-4.76c-3.4-2.78-6.59-5.8-9.87-8.72a2.39,2.39,0,0,0-.47-.29c-6.22,2.09-12.29,4.28-18.46,6.15a211.55,211.55,0,0,1-30.31,6.61c-14,2.1-28,2.26-42,1.67A181.8,181.8,0,0,1,789.31,723a210.9,210.9,0,0,1-71.77-29.32,217.88,217.88,0,0,1-29.08-22.24,233.4,233.4,0,0,1-48.12-61.32,237.2,237.2,0,0,1-18.11-42.94A232,232,0,0,1,614,531.52c-1-6.93-1.83-13.91-2.2-20.9-.47-8.69-.57-17.4-.51-26.11a192.24,192.24,0,0,1,2.13-25.23,243,243,0,0,1,7.51-35.07,233,233,0,0,1,11-30.09,4.94,4.94,0,0,0,.21-2.28c-.15-2.37.33-3.1,2.54-3.73a24.45,24.45,0,0,1,1.91-3.87c1.52-2.1,1-4.26.31-6.33a9,9,0,0,0-2.38-3.81,7.89,7.89,0,0,1-2.57-6.41,13,13,0,0,0-.8-4.16c-.83-2.4-.62-3.83,1.31-5.56a26,26,0,0,1,3.89-3.17c3.93-2.36,5.85-6,6.92-10.22.73-2.86,1.28-5.77,2.08-8.6.69-2.45,1.56-4.85,2.46-7.23.68-1.79,1.69-3.45,2.29-5.26a31.05,31.05,0,0,0,1.2-5.34c.43-2.92.7-5.87,1.08-8.8a7.37,7.37,0,0,1,.56-1.82c1-2.47,2-3,4.64-2.55a6.64,6.64,0,0,0,2.13.08c1.53-.28,2-1.18,1.46-2.61a18.87,18.87,0,0,0-1.43-2.75c-.57-1-1.21-1.88-1.85-2.8-3.07-4.41-1.22-7.32,2.77-9.24q6.34-3.07,12.82-5.91c3.15-1.39,6.38-2.64,9.9-2.59a75.49,75.49,0,0,1,8.37.49c3.7.44,7-.86,8.51-3.89,1.79-3.63,4.07-7,5.59-10.79a18.13,18.13,0,0,1,7.38-8.86c2.24-1.38,4.28-3.08,6.53-4.44a6.75,6.75,0,0,1,6.4-.76c2.1.89,2.66,2.29,1.66,4.36-.31.65-.65,1.28-1,1.93-.68,1.43-.16,2.62,1.43,2.76,3.63.3,7.12-.18,9.49-3.34a63.91,63.91,0,0,0,4.51-7,14.06,14.06,0,0,1,8.19-6.56,8.1,8.1,0,0,0,1.56-.59c3.16-1.84,6.65-2.09,10.17-2.2,2.63-.08,5.29.05,7.9-.22a40.62,40.62,0,0,0,8-1.47c4.4-1.39,8.34-.4,12.19,1.67,1.62.87,3.18,1.81,5.14,1.71,2.38-.12,5.3-3.07,5.12-5.41a4.6,4.6,0,0,0-1-2.12,6.42,6.42,0,0,1-1.19-5.21c.55-3.08,2.37-4.34,5.19-4.06a15.64,15.64,0,0,1,10.28,5.57c.91,1,1.72,2.11,2.56,3.18,2.1,2.72,4.44,2.66,7,1.58a31.24,31.24,0,0,0,3-1.59,8.54,8.54,0,0,1,6-1c2,.41,4,1,6,1.48a15.22,15.22,0,0,0,1.63.34c2.14.26,2.43.17,3.36-1.76a18.57,18.57,0,0,1,4.59-6,30,30,0,0,0,3.31-3.78,5.82,5.82,0,0,1,5.15-2.49c3.09.19,6.2-.3,9.28.68a24.43,24.43,0,0,1,11.54,7.37c.57.66,1.11,1.36,1.74,2,2.37,2.22,4.91,2.71,8.13,1.6,3.49-1.19,7.26-1,10.94-.57a2.3,2.3,0,0,1,2.09,1.72c.31,1.1-.63,1.54-1.29,2.08-1.46,1.18-1.29,2.6.49,3.36,1,.43,2.15.61,3.19,1a11.56,11.56,0,0,1,5.38,3.38,3.19,3.19,0,0,1,.87,1.88c-.3,4.61,2.51,6.76,6.36,7.69a13.14,13.14,0,0,1,8.88,6.67c2,3.55,5.23,5.2,9.16,5.79a55.82,55.82,0,0,1,7.26,1.44c2.89.82,5.15,2.82,7.52,4.59,3.06,2.3,6.09,4.65,9.22,6.86a13.12,13.12,0,0,0,6.86,2.59c2.09.13,4-.21,5.44-1.87l.18-.17c1.58-1.32,3-2.89,5.46-1.8a7.05,7.05,0,0,1,4.68,6.12,42.38,42.38,0,0,1-1.55,13.75,60.71,60.71,0,0,0-1.2,6.57c-.47,3.56,1,6.4,3.66,8.66,1.87,1.61,3.87,3.08,5.82,4.61a14.34,14.34,0,0,1,5.47,8.14,36.25,36.25,0,0,0,2.79,7.34c1.34,2.75,2.87,3.11,5.69,1.82a7.32,7.32,0,0,1,2-.77c1.86-.24,2.69.47,2.84,2.34a22.26,22.26,0,0,1-1.65,10.79c-.12.29-.23.59-.35.89,2.84,4.07,5.73,8.07,8.45,12.18a235.82,235.82,0,0,1,28.92,61,245.75,245.75,0,0,1,9.43,45.14,266.43,266.43,0,0,1,1.45,29.62,241.13,241.13,0,0,1-10.82,71.42,231.89,231.89,0,0,1-15.45,38.1,224.48,224.48,0,0,1-32.3,47.64c-4.79,5.35-9.71,10.61-14.88,15.59a209.34,209.34,0,0,1-26.35,21.43A230.68,230.68,0,0,1,929.43,703ZM876.52,688c-1.15-.8-1.88-1.41-2.7-1.87-5.83-3.3-11.64-6.66-17.55-9.83a166.39,166.39,0,0,0-23.85-10.48,152.17,152.17,0,0,0-23.51-6.33,114.6,114.6,0,0,0-18.56-2,12.37,12.37,0,0,1-4.65-1,8.39,8.39,0,0,1-3.29-2.61,7.26,7.26,0,0,1-.52-7.91,25.79,25.79,0,0,1,3.32-5.51c4.27-5,8.7-9.77,13.11-14.61,6.09-6.69,11.06-14,13.51-22.88,1.74-6.31,1.59-12.48-1.3-18.41-2.16-4.42-5.58-7-10.76-7a26.76,26.76,0,0,0-11.6,2.52,14,14,0,0,1-7.85,1.47c-3-.37-4.57-2.78-3.42-5.47a14.52,14.52,0,0,1,1-1.65,3.19,3.19,0,0,0,0-3.82,9.08,9.08,0,0,0-2.37-2.3c-2.43-1.47-5.13-1.22-7.66-.45-2.89.88-5.68,2.1-8.47,3.26s-5.41,1.27-8-.52c-.65-.46-1.36-.84-2-1.25-2-1.24-4.07-2.52-6.15-3.69-2.83-1.6-5.62-1.86-8.59,0-2.68,1.62-3.89,1.39-6.09-.9-1.74-1.8-3.58-1.73-5.68-1a19,19,0,0,0-6.06,3.72c-3.5,3-8,1.75-9.69-2.58a13.64,13.64,0,0,1-.51-1.34c-.92-3.68-3.48-5.66-7-6.51-3.17-.78-6.45-1.14-9.57-2.05a21.2,21.2,0,0,0-8.07-.57c-1.35.13-2.7.42-4.05.42-4.74,0-8.81-1.51-11.3-5.86a44.42,44.42,0,0,1-2.79-5.82,17.36,17.36,0,0,0-10.33-10.61c-3.61-1.39-5.58-4.37-6.24-8.18a17.25,17.25,0,0,1,.62-7.35c.85-3.3.49-6.41-2.15-8.83-1.92-1.75-4-3.29-6.4-5.2.15,2.28.25,4.21.41,6.14a218.44,218.44,0,0,0,4.11,27.65,206.34,206.34,0,0,0,29.34,70.29,198.3,198.3,0,0,0,37.59,42.61A189.61,189.61,0,0,0,747.11,674a182.72,182.72,0,0,0,42.38,15.46,174,174,0,0,0,32.67,4.41c6.21.24,12.46-.06,18.68-.26a164.34,164.34,0,0,0,29.36-4C872.18,689.2,874.13,688.64,876.52,688Zm90-154.73a5.59,5.59,0,0,0-.17,1c.14,3.67.26,7.35.45,11,.33,6.28-2,11.26-7.39,14.57A23.42,23.42,0,0,1,946.75,563c-3.82,0-7.64-.63-11.46-1-4.46-.37-8.91-.87-13.38-1a58,58,0,0,0-16.4,1.41c-7.92,2-13.66,6.24-15.77,14.56-1.36,5.42-2.91,10.76-3.3,16.39a58.62,58.62,0,0,0,1.77,19.22c2.21,8.31,5.88,16,10,23.53,5,9.14,10.19,18.24,15.25,27.38,1.46,2.63,2.76,5.36,4.27,8.33,5.19-3.23,10.37-6.21,15.3-9.56a194.37,194.37,0,0,0,37-32.78,203,203,0,0,0,33.32-52.32A210.06,210.06,0,0,0,1017.6,531a207.35,207.35,0,0,0,3.5-31.09,220,220,0,0,0-.65-27,229.62,229.62,0,0,0-4.26-28.12,201.29,201.29,0,0,0-10.9-34.67c-2.11-5.07-4.49-10-6.82-15.19-1,.37-1.69.66-2.42.93-4.67,1.72-6.35,5.9-3.9,10.07a5.92,5.92,0,0,1,.21,6.1c-.68,1.35-1.29,2.73-2,4.07a13.21,13.21,0,0,0-1.8,7.32,12.22,12.22,0,0,1-.56,4.48,3.93,3.93,0,0,1-5.78,2.31,4.1,4.1,0,0,1-1.33-1.85,13.63,13.63,0,0,1-.33-1.88c-.71-2.6-2.31-3.7-5-3.27a9,9,0,0,0-3.35,1.15c-2,1.31-3.82,2.88-5.75,4.28a5.54,5.54,0,0,0-2.26,5.24c.21,3.11.31,6.23.65,9.32a38.11,38.11,0,0,0,1.14,4.86c1.93.89,3.46,0,4.91-.44a33.39,33.39,0,0,0,4.71-2.47,18.65,18.65,0,0,1-6.52,6.75c-1.36.9-1.46,1-.56,2.38,2.22,3.51,4.41,7,6.82,10.43s5,6.42,7.44,9.69c3.46,4.64,3.59,10.63-2.4,14.17-1.78,1.06-3.63,2-5.44,3-1.21.67-1.57,1.31-.94,2.26,1.56,2.37,2.53,5.08,4.88,7a9.41,9.41,0,0,1,2,11.38,10.68,10.68,0,0,1-6,4.47c-.56.2-1.12.37-2.19.72,3.71,3,4.13,6.58,2.85,10.23C974.16,531.71,970.13,532.34,966.5,533.31Zm43.2-149.14V384l-1.22.1Z" transform="translate(551.52 -22.36)"/><path class="cls-1" d="M-119.68,580.58c-2.39.6-4.34,1.16-6.33,1.58a165,165,0,0,1-29.35,4c-6.23.19-12.47.5-18.69.25a174.75,174.75,0,0,1-32.66-4.4,182.72,182.72,0,0,1-42.38-15.46,189.68,189.68,0,0,1-36.37-24.29A198.25,198.25,0,0,1-323,499.67a206.31,206.31,0,0,1-29.34-70.3,218.55,218.55,0,0,1-4.11-27.64c-.17-1.93-.27-3.87-.42-6.14,2.37,1.91,4.49,3.45,6.41,5.2,2.64,2.41,3,5.52,2.14,8.83A17.37,17.37,0,0,0-349,417c.66,3.82,2.63,6.8,6.24,8.19a17.36,17.36,0,0,1,10.33,10.61,45,45,0,0,0,2.79,5.82c2.48,4.35,6.56,5.83,11.3,5.85,1.35,0,2.7-.29,4.05-.41a21.19,21.19,0,0,1,8.07.56c3.12.92,6.4,1.28,9.57,2.06,3.48.85,6,2.83,7,6.5a13.73,13.73,0,0,0,.5,1.35c1.65,4.33,6.2,5.59,9.69,2.58a18.94,18.94,0,0,1,6.07-3.72c2.1-.75,3.94-.83,5.67,1,2.21,2.29,3.42,2.53,6.1.9,3-1.8,5.76-1.54,8.59,0,2.08,1.18,4.1,2.46,6.15,3.7.68.41,1.39.78,2,1.24,2.56,1.8,5.2,1.67,8,.52s5.58-2.37,8.46-3.25c2.54-.77,5.23-1,7.67.45a9.08,9.08,0,0,1,2.37,2.3,3.19,3.19,0,0,1,0,3.82,13.58,13.58,0,0,0-1,1.64c-1.15,2.7.41,5.1,3.41,5.47A14,14,0,0,0-208,472.7a26.73,26.73,0,0,1,11.6-2.52c5.18,0,8.6,2.6,10.75,7,2.89,5.92,3.05,12.1,1.31,18.4-2.45,8.85-7.42,16.19-13.51,22.89-4.41,4.83-8.85,9.65-13.11,14.61a25.55,25.55,0,0,0-3.32,5.51,7.26,7.26,0,0,0,.51,7.91,8.55,8.55,0,0,0,3.29,2.61,12.57,12.57,0,0,0,4.66,1,115.84,115.84,0,0,1,18.56,2,152.91,152.91,0,0,1,23.5,6.34,166.46,166.46,0,0,1,23.86,10.47c5.9,3.18,11.71,6.54,17.55,9.84C-121.56,579.17-120.83,579.77-119.68,580.58Z" transform="translate(551.52 -22.36)"/><path class="cls-1" d="M-29.7,425.85c3.62-1,7.66-1.61,9.08-5.66,1.28-3.66.87-7.29-2.84-10.23l2.19-.72a10.68,10.68,0,0,0,6-4.47,9.39,9.39,0,0,0-2-11.38c-2.34-1.93-3.31-4.65-4.88-7-.62-.95-.27-1.59.94-2.26,1.82-1,3.66-2,5.45-3,6-3.54,5.86-9.53,2.4-14.17-2.43-3.27-5.09-6.38-7.44-9.7s-4.61-6.91-6.82-10.42c-.9-1.44-.81-1.49.56-2.39a18.6,18.6,0,0,0,6.51-6.74,31.67,31.67,0,0,1-4.7,2.46c-1.46.49-3,1.34-4.91.44a37.55,37.55,0,0,1-1.14-4.85c-.34-3.1-.45-6.22-.65-9.33a5.5,5.5,0,0,1,2.25-5.23c1.94-1.4,3.76-3,5.76-4.28a8.79,8.79,0,0,1,3.34-1.15c2.68-.43,4.28.67,5,3.27a12.5,12.5,0,0,0,.33,1.88A4.07,4.07,0,0,0-14,322.74a3.93,3.93,0,0,0,5.79-2.3A12.47,12.47,0,0,0-7.62,316a13.18,13.18,0,0,1,1.8-7.32c.69-1.34,1.3-2.72,2-4.07a5.94,5.94,0,0,0-.2-6.11c-2.46-4.17-.77-8.34,3.89-10.06l2.43-.93C4.6,292.63,7,297.59,9.09,302.65A200.49,200.49,0,0,1,20,337.33a227.57,227.57,0,0,1,4.27,28.11,222.17,222.17,0,0,1,.65,27.05,207.22,207.22,0,0,1-3.5,31.08A210,210,0,0,1,7.18,469.69,203.25,203.25,0,0,1-26.14,522a194,194,0,0,1-37,32.77c-4.93,3.36-10.11,6.34-15.3,9.56-1.52-3-2.81-5.69-4.27-8.32-5.06-9.15-10.2-18.24-15.26-27.39-4.13-7.49-7.8-15.21-10-23.52a58.35,58.35,0,0,1-1.77-19.22c.39-5.63,1.94-11,3.3-16.39,2.1-8.32,7.85-12.58,15.76-14.56a57.76,57.76,0,0,1,16.41-1.41c4.47.17,8.92.67,13.38,1,3.82.32,7.64.93,11.46.95a23.5,23.5,0,0,0,12.64-3.07c5.39-3.31,7.71-8.3,7.39-14.58-.19-3.67-.31-7.34-.45-11A5.45,5.45,0,0,1-29.7,425.85Z" transform="translate(551.52 -22.36)"/><path class="cls-1" d="M13.49,276.7l-1.22-.06,1.22-.11Z" transform="translate(551.52 -22.36)"/></svg>