<svg xmlns="http://www.w3.org/2000/svg" xmlns:xlink="http://www.w3.org/1999/xlink" width="375" height="667" viewBox="0 0 375 667">
  <defs>
    <clipPath id="clip-iPhone_6_7_8_5">
      <rect width="375" height="667"/>
    </clipPath>
  </defs>
  <g id="iPhone_6_7_8_5" data-name="iPhone 6/7/8 – 5" clip-path="url(#clip-iPhone_6_7_8_5)">
    <rect width="375" height="667" fill="#313131"/>
    <rect id="Rectangle_7" data-name="Rectangle 7" width="122" height="126" transform="matrix(0.469, 0.883, -0.883, 0.469, 72.242, 547.441)" fill="#f46320"/>
    <rect id="Rectangle_8" data-name="Rectangle 8" width="122" height="126" transform="matrix(0.469, 0.883, -0.883, 0.469, 369.242, 547.441)" fill="#f46320"/>
    <rect id="Rectangle_9" data-name="Rectangle 9" width="71" height="68" transform="matrix(0.829, 0.559, -0.559, 0.829, 283.479, 522.622)" fill="#ee9b75"/>
    <rect id="Rectangle_10" data-name="Rectangle 10" width="122" height="126" transform="translate(218.021 592.331) rotate(108)" fill="#e1703c"/>
    <rect id="Rectangle_11" data-name="Rectangle 11" width="122" height="126" transform="matrix(-0.766, 0.643, -0.643, -0.766, 326.478, 635.928)" fill="#d14c0e"/>
    <rect id="Rectangle_12" data-name="Rectangle 12" width="122" height="126" transform="translate(60.313 525.031) rotate(123)" fill="#d14c0e"/>
    <rect id="Rectangle_13" data-name="Rectangle 13" width="122" height="126" transform="matrix(-0.743, 0.669, -0.669, -0.743, 473.741, 516.879)" fill="#d14c0e"/>
    <rect id="Rectangle_20" data-name="Rectangle 20" width="122" height="126" transform="translate(504.313 525.031) rotate(123)" fill="#d14c0e"/>
  </g>
</svg>
