<svg id="Layer_1" data-name="Layer 1" xmlns="http://www.w3.org/2000/svg" xmlns:xlink="http://www.w3.org/1999/xlink" viewBox="0 0 1853.42 842.4"><defs><style>.cls-1{fill:#fff;}.cls-2{fill:#fcfcfc;}.cls-3{fill:url(#linear-gradient);}</style><linearGradient id="linear-gradient" x1="736.06" y1="504.02" x2="1111.37" y2="504.02" gradientUnits="userSpaceOnUse"><stop offset="0.38" stop-color="#fff"/><stop offset="0.61" stop-color="#fdfdfd"/><stop offset="0.69" stop-color="#f6f6f6"/><stop offset="0.75" stop-color="#ebebeb"/><stop offset="0.8" stop-color="#dadada"/><stop offset="0.84" stop-color="#c4c4c4"/><stop offset="0.88" stop-color="#a8a8a8"/><stop offset="0.91" stop-color="#888"/><stop offset="0.94" stop-color="#626262"/><stop offset="0.97" stop-color="#373737"/><stop offset="1" stop-color="#090909"/><stop offset="1"/></linearGradient></defs><title>Untitled-1</title><path class="cls-1" d="M-861.52,871.76V29.36h595.68v842.4Zm409.75-236.27a230.62,230.62,0,0,0,22.44-13.65A207.77,207.77,0,0,0-403,600.42c5.17-5,10.09-10.25,14.88-15.6a224.53,224.53,0,0,0,32.3-47.63,232.6,232.6,0,0,0,15.45-38.1,241.84,241.84,0,0,0,10.82-71.42A264.05,264.05,0,0,0-331,398.05a245.72,245.72,0,0,0-9.42-45.14,235.88,235.88,0,0,0-28.92-61c-2.73-4.1-5.62-8.1-8.45-12.17.12-.3.23-.6.35-.89A22.3,22.3,0,0,0-375.77,268c-.16-1.88-1-2.58-2.84-2.34a7.19,7.19,0,0,0-2,.77c-2.82,1.29-4.35.92-5.69-1.83a36.56,36.56,0,0,1-2.8-7.33,14.32,14.32,0,0,0-5.46-8.15c-1.95-1.52-3.95-3-5.83-4.61-2.62-2.26-4.12-5.09-3.65-8.65a60.27,60.27,0,0,1,1.2-6.57,42.38,42.38,0,0,0,1.55-13.75c-.26-3-1.93-4.92-4.68-6.13-2.48-1.08-3.89.49-5.47,1.81a1.37,1.37,0,0,0-.17.17c-1.46,1.66-3.35,2-5.44,1.87a13.29,13.29,0,0,1-6.86-2.59c-3.13-2.21-6.16-4.56-9.23-6.86-2.36-1.78-4.62-3.78-7.51-4.6a59.37,59.37,0,0,0-7.26-1.44c-3.93-.59-7.17-2.23-9.16-5.78a13.11,13.11,0,0,0-8.88-6.67c-3.85-.93-6.66-3.09-6.36-7.7a3.19,3.19,0,0,0-.87-1.88,11.72,11.72,0,0,0-5.38-3.38c-1-.38-2.17-.57-3.19-1-1.78-.75-1.95-2.17-.49-3.36.66-.54,1.6-1,1.28-2.07a2.3,2.3,0,0,0-2.08-1.72c-3.69-.41-7.45-.63-10.94.57-3.22,1.1-5.77.62-8.13-1.61a21.83,21.83,0,0,1-1.75-2,24.41,24.41,0,0,0-11.54-7.37c-3.08-1-6.18-.49-9.28-.68a5.85,5.85,0,0,0-5.14,2.5,30,30,0,0,1-3.31,3.78,18.57,18.57,0,0,0-4.59,6c-.93,1.93-1.22,2-3.36,1.76a13.7,13.7,0,0,1-1.64-.35c-2-.49-4-1.06-6-1.47a8.58,8.58,0,0,0-6,.95,29.11,29.11,0,0,1-3,1.59c-2.58,1.09-4.92,1.15-7-1.57-.83-1.07-1.64-2.17-2.55-3.18a15.66,15.66,0,0,0-10.28-5.57c-2.82-.29-4.64,1-5.2,4a6.49,6.49,0,0,0,1.2,5.22,4.58,4.58,0,0,1,1,2.12c.19,2.34-2.73,5.29-5.11,5.41-2,.09-3.52-.84-5.14-1.71-3.85-2.07-7.79-3.06-12.2-1.67a41.13,41.13,0,0,1-8,1.47c-2.61.27-5.27.14-7.9.22-3.52.11-7,.36-10.17,2.2a8.36,8.36,0,0,1-1.56.59,14,14,0,0,0-8.19,6.56,61.53,61.53,0,0,1-4.52,7c-2.36,3.17-5.85,3.64-9.48,3.34-1.59-.13-2.11-1.32-1.43-2.76.31-.64.65-1.27,1-1.92,1-2.07.43-3.48-1.66-4.36a6.74,6.74,0,0,0-6.4.75c-2.25,1.37-4.29,3.06-6.53,4.45a18.13,18.13,0,0,0-7.38,8.86c-1.53,3.78-3.8,7.16-5.59,10.79-1.5,3-4.81,4.33-8.51,3.88a80.86,80.86,0,0,0-8.38-.49c-3.51,0-6.75,1.21-9.9,2.59q-6.45,2.83-12.82,5.92c-4,1.92-5.83,4.82-2.76,9.24.64.91,1.28,1.83,1.85,2.79A21.11,21.11,0,0,1-720,235c.57,1.44.07,2.34-1.47,2.61a6.31,6.31,0,0,1-2.12-.07c-2.62-.43-3.6.08-4.64,2.55a6.9,6.9,0,0,0-.56,1.81c-.39,2.94-.65,5.89-1.08,8.81a31.26,31.26,0,0,1-1.2,5.34c-.6,1.8-1.61,3.47-2.29,5.26-.91,2.37-1.77,4.78-2.46,7.22-.8,2.84-1.35,5.75-2.08,8.61-1.07,4.22-3,7.86-6.92,10.21a26.75,26.75,0,0,0-3.89,3.18c-1.93,1.72-2.15,3.16-1.32,5.55a13,13,0,0,1,.81,4.16,7.86,7.86,0,0,0,2.57,6.41,9.1,9.1,0,0,1,2.38,3.82c.68,2.06,1.21,4.23-.32,6.33a25.68,25.68,0,0,0-1.91,3.86c-2.21.64-2.69,1.37-2.53,3.74a5,5,0,0,1-.21,2.28,230.5,230.5,0,0,0-11,30.08,241.78,241.78,0,0,0-7.51,35.08,190.54,190.54,0,0,0-2.13,25.23c-.06,8.7,0,17.42.5,26.11.38,7,1.2,14,2.21,20.9A233.18,233.18,0,0,0-759,499.71a237.24,237.24,0,0,0,18.12,42.94,232.41,232.41,0,0,0,27,39.45A234.51,234.51,0,0,0-692.74,604a217.81,217.81,0,0,0,29.08,22.23A214.46,214.46,0,0,0-637,640.79a213.47,213.47,0,0,0,45.12,14.74,182.8,182.8,0,0,0,29.33,3.87c14,.59,28.08.42,42-1.67a212.92,212.92,0,0,0,30.31-6.61c6.17-1.87,12.23-4.07,18.46-6.15a2.72,2.72,0,0,1,.47.29c3.28,2.91,6.47,5.94,9.87,8.71a42,42,0,0,0,7.13,4.76c2.74,1.43,5.24-.12,5.45-3.17a31.14,31.14,0,0,0-.82-10.95C-450.49,641.64-451.06,638.58-451.77,635.49Z" transform="translate(861.52 -29.36)"/><path class="cls-1" d="M13.49,276.7l-1.22-.06,1.22-.11Z" transform="translate(861.52 -29.36)"/><rect class="cls-2" x="1488.52" y="125.64" width="123.26" height="144"/><path class="cls-3" d="M887.72,699.21c.61,2.64,1.09,5.24,1.82,7.77a26.72,26.72,0,0,1,.7,9.33c-.19,2.6-2.31,3.92-4.65,2.71a36.8,36.8,0,0,1-6.08-4.06c-2.89-2.36-5.61-4.94-8.41-7.42a2.1,2.1,0,0,0-.4-.26c-5.3,1.78-10.47,3.65-15.73,5.25a181.8,181.8,0,0,1-25.83,5.63,188.33,188.33,0,0,1-35.83,1.42,155.07,155.07,0,0,1-25-3.29,181.27,181.27,0,0,1-38.46-12.57,183.73,183.73,0,0,1-22.71-12.42,186.74,186.74,0,0,1-24.78-18.95,199.25,199.25,0,0,1-41-52.26,201.5,201.5,0,0,1-15.44-36.59,199.1,199.1,0,0,1-7-30.38c-.86-5.9-1.56-11.85-1.88-17.81-.4-7.4-.48-14.83-.43-22.25a164.82,164.82,0,0,1,1.82-21.5,206.26,206.26,0,0,1,6.4-29.89A196.09,196.09,0,0,1,634.23,436a4.22,4.22,0,0,0,.17-2c-.13-2,.28-2.64,2.16-3.18a21,21,0,0,1,1.63-3.29c1.3-1.79.85-3.64.27-5.4a7.76,7.76,0,0,0-2-3.25,6.72,6.72,0,0,1-2.19-5.46,11.12,11.12,0,0,0-.68-3.55c-.71-2-.52-3.26,1.11-4.73a22.55,22.55,0,0,1,3.33-2.71c3.34-2,5-5.1,5.89-8.7.62-2.44,1.09-4.92,1.77-7.34.59-2.08,1.33-4.13,2.1-6.15.58-1.52,1.44-2.95,2-4.48a27.21,27.21,0,0,0,1-4.55c.37-2.49.59-5,.92-7.51a6.18,6.18,0,0,1,.48-1.55c.89-2.1,1.72-2.53,4-2.17a5.53,5.53,0,0,0,1.81.07c1.31-.24,1.74-1,1.25-2.23a16.2,16.2,0,0,0-1.21-2.34c-.49-.82-1-1.6-1.58-2.39-2.62-3.76-1-6.23,2.35-7.87,3.62-1.74,7.26-3.43,10.93-5a20.35,20.35,0,0,1,8.44-2.21,70.67,70.67,0,0,1,7.13.42c3.16.38,6-.73,7.25-3.31,1.53-3.09,3.47-6,4.77-9.19a15.39,15.39,0,0,1,6.29-7.55c1.9-1.18,3.65-2.63,5.56-3.79a5.77,5.77,0,0,1,5.45-.65c1.79.76,2.27,1.95,1.42,3.72-.26.55-.56,1.09-.82,1.64-.58,1.23-.14,2.24,1.22,2.35,3.09.26,6.07-.15,8.08-2.84a53.82,53.82,0,0,0,3.85-6,11.94,11.94,0,0,1,7-5.59,7.29,7.29,0,0,0,1.33-.5c2.69-1.57,5.66-1.79,8.66-1.88,2.25-.07,4.51,0,6.74-.18a34.56,34.56,0,0,0,6.8-1.26c3.76-1.18,7.11-.34,10.39,1.42a8.28,8.28,0,0,0,4.38,1.46c2-.1,4.52-2.62,4.36-4.61a3.78,3.78,0,0,0-.82-1.8,5.57,5.57,0,0,1-1-4.45c.47-2.62,2-3.7,4.43-3.46a13.35,13.35,0,0,1,8.76,4.75c.77.87,1.47,1.8,2.18,2.71,1.79,2.32,3.79,2.27,6,1.34a25.32,25.32,0,0,0,2.51-1.35,7.34,7.34,0,0,1,5.14-.82c1.73.36,3.44.84,5.16,1.26a13.23,13.23,0,0,0,1.39.3c1.82.22,2.07.14,2.86-1.5a15.9,15.9,0,0,1,3.91-5.15,24.82,24.82,0,0,0,2.82-3.22,5,5,0,0,1,4.39-2.13c2.64.17,5.28-.25,7.91.58a20.86,20.86,0,0,1,9.83,6.28,21.63,21.63,0,0,0,1.49,1.67,6.21,6.21,0,0,0,6.92,1.37c3-1,6.19-.84,9.33-.48a2,2,0,0,1,1.78,1.46c.27.93-.54,1.31-1.1,1.77-1.24,1-1.1,2.22.42,2.86.87.37,1.83.52,2.72.85a10,10,0,0,1,4.58,2.88,2.7,2.7,0,0,1,.74,1.61c-.25,3.93,2.14,5.76,5.42,6.55a11.21,11.21,0,0,1,7.57,5.69c1.7,3,4.46,4.42,7.8,4.93a49.8,49.8,0,0,1,6.19,1.22c2.46.7,4.39,2.41,6.41,3.92,2.61,2,5.19,4,7.85,5.85a11.3,11.3,0,0,0,5.86,2.2,5.25,5.25,0,0,0,4.63-1.59l.15-.14c1.34-1.13,2.54-2.47,4.66-1.54a6,6,0,0,1,4,5.21,36,36,0,0,1-1.32,11.72,53,53,0,0,0-1,5.6,8,8,0,0,0,3.12,7.38c1.59,1.37,3.3,2.62,5,3.93a12.15,12.15,0,0,1,4.65,6.94,31.58,31.58,0,0,0,2.39,6.25c1.14,2.34,2.44,2.65,4.85,1.55a6.08,6.08,0,0,1,1.68-.65c1.58-.21,2.29.39,2.42,2a19,19,0,0,1-1.4,9.2c-.11.24-.2.5-.3.75,2.42,3.47,4.88,6.88,7.2,10.38a200.92,200.92,0,0,1,24.64,52,209.64,209.64,0,0,1,8,38.47,228.73,228.73,0,0,1,1.24,25.24A206.12,206.12,0,0,1,982.68,583a198.75,198.75,0,0,1-13.17,32.47A191.18,191.18,0,0,1,942,656c-4.09,4.56-8.28,9.05-12.69,13.29a176,176,0,0,1-22.46,18.26A196.45,196.45,0,0,1,887.72,699.21ZM842.63,686.5c-1-.68-1.6-1.2-2.3-1.59-5-2.82-9.92-5.67-15-8.38a141.22,141.22,0,0,0-20.32-8.93,129.12,129.12,0,0,0-20-5.4,98.72,98.72,0,0,0-15.81-1.67,10.61,10.61,0,0,1-4-.83,7.23,7.23,0,0,1-2.8-2.22,6.18,6.18,0,0,1-.44-6.74,22.07,22.07,0,0,1,2.83-4.7c3.63-4.23,7.42-8.33,11.17-12.45,5.19-5.7,9.43-12,11.51-19.5a21.55,21.55,0,0,0-1.11-15.69c-1.83-3.76-4.75-6-9.16-6a23,23,0,0,0-9.89,2.15,12,12,0,0,1-6.69,1.25c-2.56-.32-3.89-2.36-2.91-4.66a10.9,10.9,0,0,1,.82-1.4,2.71,2.71,0,0,0,0-3.26,7.68,7.68,0,0,0-2-2c-2.07-1.25-4.37-1-6.53-.38-2.46.75-4.83,1.78-7.22,2.77s-4.6,1.09-6.78-.44c-.56-.39-1.16-.71-1.75-1.06-1.74-1.06-3.46-2.15-5.23-3.15a6.7,6.7,0,0,0-7.32,0c-2.29,1.38-3.32,1.18-5.2-.77-1.48-1.54-3.05-1.47-4.83-.83a16.14,16.14,0,0,0-5.17,3.17c-3,2.56-6.86,1.49-8.26-2.2a11.31,11.31,0,0,1-.43-1.15c-.78-3.13-3-4.81-5.93-5.54-2.7-.66-5.5-1-8.16-1.75a18,18,0,0,0-6.87-.48c-1.15.1-2.3.36-3.46.35-4,0-7.51-1.28-9.62-5a37,37,0,0,1-2.38-5,14.8,14.8,0,0,0-8.81-9c-3.07-1.18-4.75-3.73-5.31-7a14.75,14.75,0,0,1,.52-6.26c.73-2.81.42-5.46-1.82-7.52-1.64-1.49-3.44-2.8-5.46-4.43.12,1.94.21,3.59.35,5.23a185.4,185.4,0,0,0,3.5,23.56,175.8,175.8,0,0,0,25,59.9,168.47,168.47,0,0,0,32,36.31,161,161,0,0,0,31,20.7,155.9,155.9,0,0,0,36.12,13.18,149.37,149.37,0,0,0,27.83,3.75c5.3.21,10.62,0,15.93-.22a139.73,139.73,0,0,0,25-3.42C838.93,687.49,840.6,687,842.63,686.5Zm76.68-131.85a4.58,4.58,0,0,0-.15.86c.12,3.13.23,6.26.39,9.38.27,5.36-1.7,9.6-6.3,12.42a19.91,19.91,0,0,1-10.77,2.62c-3.26,0-6.51-.53-9.77-.81-3.8-.32-7.59-.74-11.4-.89a49.5,49.5,0,0,0-14,1.21c-6.74,1.68-11.64,5.31-13.43,12.41-1.17,4.61-2.48,9.16-2.81,14a49.85,49.85,0,0,0,1.5,16.38,89.31,89.31,0,0,0,8.54,20c4.3,7.79,8.69,15.54,13,23.33,1.24,2.25,2.34,4.57,3.64,7.1,4.42-2.75,8.83-5.29,13-8.15a165.71,165.71,0,0,0,31.55-27.93A172.63,172.63,0,0,0,950.73,592a178.6,178.6,0,0,0,12.12-39.29,176.38,176.38,0,0,0,3-26.49,186.76,186.76,0,0,0-.56-23.05,194.94,194.94,0,0,0-3.63-23.95,171,171,0,0,0-9.29-29.56c-1.8-4.31-3.82-8.54-5.81-12.94-.83.32-1.44.57-2.06.8-4,1.46-5.42,5-3.32,8.57a5.08,5.08,0,0,1,.17,5.21c-.57,1.15-1.09,2.32-1.68,3.47a11.16,11.16,0,0,0-1.53,6.23,10.82,10.82,0,0,1-.48,3.82,3.35,3.35,0,0,1-4.93,2,3.4,3.4,0,0,1-1.13-1.57,11.61,11.61,0,0,1-.29-1.6c-.6-2.21-2-3.16-4.24-2.79a7.55,7.55,0,0,0-2.85,1c-1.71,1.11-3.26,2.45-4.91,3.65a4.71,4.71,0,0,0-1.92,4.46c.18,2.65.27,5.31.56,7.95a31.45,31.45,0,0,0,1,4.14c1.64.76,2.94,0,4.18-.38a28,28,0,0,0,4-2.1,15.91,15.91,0,0,1-5.55,5.75c-1.16.76-1.24.81-.48,2,1.89,3,3.76,6,5.81,8.88s4.27,5.48,6.35,8.26c2.94,4,3,9.06-2.05,12.08-1.52.9-3.1,1.71-4.64,2.56-1,.57-1.33,1.13-.8,1.93,1.33,2,2.16,4.33,4.16,6a8,8,0,0,1,1.69,9.69,9.1,9.1,0,0,1-5.1,3.81c-.47.17-1,.32-1.87.62,3.17,2.5,3.52,5.6,2.43,8.71C925.84,553.28,922.4,553.82,919.31,554.65Zm36.81-127.1v-.14l-1,.09Z" transform="translate(861.52 -29.36)"/><path class="cls-1" d="M-500.7,624.33c-2.59.65-4.71,1.25-6.86,1.71a178.85,178.85,0,0,1-31.83,4.36c-6.75.21-13.52.54-20.26.28a190,190,0,0,1-35.43-4.78,198.28,198.28,0,0,1-46-16.77,206,206,0,0,1-39.43-26.34,214.74,214.74,0,0,1-40.75-46.21A223.46,223.46,0,0,1-753,460.36a236.89,236.89,0,0,1-4.46-30c-.18-2.09-.28-4.19-.45-6.66,2.57,2.07,4.87,3.74,7,5.64,2.86,2.62,3.25,6,2.32,9.57a18.7,18.7,0,0,0-.66,8c.72,4.14,2.85,7.37,6.76,8.88,5.59,2.15,9.09,6.05,11.21,11.5a47.43,47.43,0,0,0,3,6.31c2.7,4.72,7.11,6.33,12.25,6.35a43.73,43.73,0,0,0,4.4-.45,22.87,22.87,0,0,1,8.74.62c3.39,1,7,1.38,10.39,2.22,3.77.93,6.55,3.08,7.54,7.06.13.5.37,1,.55,1.46,1.79,4.69,6.72,6.06,10.51,2.79a20.66,20.66,0,0,1,6.58-4c2.27-.81,4.27-.9,6.15,1.06,2.39,2.48,3.7,2.74,6.61,1,3.22-1.95,6.25-1.67,9.32.06,2.25,1.27,4.44,2.66,6.66,4,.74.45,1.51.86,2.22,1.35,2.77,1.95,5.63,1.81,8.63.57s6.06-2.57,9.19-3.53c2.75-.84,5.67-1.11,8.31.49a10,10,0,0,1,2.57,2.49,3.45,3.45,0,0,1,.05,4.14,14.69,14.69,0,0,0-1.05,1.79c-1.25,2.92.45,5.53,3.71,5.93a15.16,15.16,0,0,0,8.51-1.59,29.09,29.09,0,0,1,12.58-2.73c5.62,0,9.33,2.82,11.66,7.61,3.14,6.42,3.31,13.12,1.42,20-2.66,9.59-8,17.55-14.65,24.81-4.78,5.25-9.59,10.47-14.21,15.85a27.76,27.76,0,0,0-3.61,6,7.89,7.89,0,0,0,.56,8.58,9.15,9.15,0,0,0,3.57,2.83,13.23,13.23,0,0,0,5.05,1A124.76,124.76,0,0,1-574,593.4a164.22,164.22,0,0,1,25.49,6.88,179.73,179.73,0,0,1,25.87,11.35c6.4,3.45,12.7,7.09,19,10.67C-502.74,622.8-501.95,623.45-500.7,624.33Z" transform="translate(861.52 -29.36)"/><path class="cls-1" d="M-407.13,460.77c3.94-1.06,8.31-1.75,9.86-6.15,1.38-4,.94-7.9-3.09-11.09,1.16-.38,1.77-.57,2.37-.78a11.56,11.56,0,0,0,6.49-4.85,10.21,10.21,0,0,0-2.15-12.34c-2.55-2.09-3.59-5-5.29-7.6-.68-1-.3-1.73,1-2.45,2-1.09,4-2.12,5.91-3.26,6.49-3.84,6.36-10.34,2.61-15.37-2.64-3.55-5.52-6.91-8.08-10.51s-5-7.5-7.39-11.31c-1-1.55-.87-1.61.61-2.58a20.3,20.3,0,0,0,7.06-7.32,35.91,35.91,0,0,1-5.1,2.68c-1.58.52-3.23,1.44-5.33.47a40.22,40.22,0,0,1-1.23-5.26c-.37-3.36-.48-6.74-.71-10.12a6,6,0,0,1,2.45-5.67c2.1-1.52,4.07-3.23,6.24-4.64a9.45,9.45,0,0,1,3.63-1.25c2.9-.47,4.63.73,5.4,3.55a14.57,14.57,0,0,0,.36,2,4.34,4.34,0,0,0,1.44,2,4.26,4.26,0,0,0,6.27-2.49,13.71,13.71,0,0,0,.61-4.87,14.31,14.31,0,0,1,1.95-7.93c.75-1.45,1.41-3,2.14-4.41a6.43,6.43,0,0,0-.22-6.62c-2.66-4.53-.84-9.05,4.22-10.92.79-.29,1.58-.6,2.63-1,2.53,5.6,5.11,11,7.4,16.47a217.86,217.86,0,0,1,11.81,37.6,244.93,244.93,0,0,1,4.62,30.49,237.42,237.42,0,0,1,.71,29.33,223.58,223.58,0,0,1-3.8,33.7,227.51,227.51,0,0,1-15.42,50A220.13,220.13,0,0,1-403.26,565a210.81,210.81,0,0,1-40.14,35.54c-5.35,3.63-11,6.87-16.59,10.37-1.64-3.23-3.05-6.18-4.63-9-5.49-9.92-11.06-19.78-16.54-29.7-4.49-8.13-8.46-16.49-10.86-25.51a63.25,63.25,0,0,1-1.92-20.84c.42-6.11,2.1-11.9,3.58-17.77,2.28-9,8.51-13.65,17.09-15.79a62.69,62.69,0,0,1,17.79-1.53c4.84.18,9.68.72,14.51,1.13,4.14.35,8.28,1,12.43,1a25.44,25.44,0,0,0,13.71-3.34c5.84-3.58,8.36-9,8-15.8-.21-4-.34-8-.49-11.94A6.47,6.47,0,0,1-407.13,460.77Z" transform="translate(861.52 -29.36)"/></svg>