<svg id="Layer_1" data-name="Layer 1" xmlns="http://www.w3.org/2000/svg" xmlns:xlink="http://www.w3.org/1999/xlink" viewBox="0 0 192 192"><defs><style>.cls-1{fill:url(#linear-gradient);}</style><linearGradient id="linear-gradient" x1="67.03" y1="95.84" x2="207.82" y2="95.84" gradientUnits="userSpaceOnUse"><stop offset="0.38" stop-color="#fff"/><stop offset="0.61" stop-color="#fdfdfd"/><stop offset="0.69" stop-color="#f6f6f6"/><stop offset="0.75" stop-color="#ebebeb"/><stop offset="0.8" stop-color="#dadada"/><stop offset="0.84" stop-color="#c4c4c4"/><stop offset="0.88" stop-color="#a8a8a8"/><stop offset="0.91" stop-color="#888"/><stop offset="0.94" stop-color="#626262"/><stop offset="0.97" stop-color="#373737"/><stop offset="1" stop-color="#090909"/><stop offset="1"/></linearGradient></defs><title>drawable-xxxhdpi-icon</title><path class="cls-1" d="M123.92,169.05c.23,1,.41,2,.68,2.92a9.86,9.86,0,0,1,.26,3.5,1.13,1.13,0,0,1-1.74,1,13.36,13.36,0,0,1-2.28-1.53c-1.09-.88-2.1-1.85-3.15-2.78-.06-.05-.13-.08-.15-.1-2,.67-3.93,1.37-5.9,2a69.58,69.58,0,0,1-9.7,2.12,71.06,71.06,0,0,1-13.44.53,57,57,0,0,1-9.37-1.24,67.68,67.68,0,0,1-14.43-4.71A70.15,70.15,0,0,1,46.89,159a74.6,74.6,0,0,1-15.38-19.6,77,77,0,0,1-8.43-25.13c-.32-2.21-.58-4.44-.7-6.68-.15-2.78-.18-5.56-.16-8.34a60.59,60.59,0,0,1,.68-8.07A76.6,76.6,0,0,1,25.3,80a73.38,73.38,0,0,1,3.53-9.62,1.62,1.62,0,0,0,.06-.73c-.05-.76.11-1,.81-1.19a8.41,8.41,0,0,1,.61-1.24,2.08,2.08,0,0,0,.11-2,2.89,2.89,0,0,0-.77-1.22,2.54,2.54,0,0,1-.82-2,4.29,4.29,0,0,0-.25-1.33A1.4,1.4,0,0,1,29,58.77a9.21,9.21,0,0,1,1.25-1,5,5,0,0,0,2.21-3.27c.23-.91.41-1.84.67-2.75s.49-1.55.78-2.31c.22-.57.54-1.1.74-1.68a11,11,0,0,0,.38-1.7c.14-.94.22-1.88.34-2.82a2.43,2.43,0,0,1,.18-.58c.34-.79.65-.95,1.49-.82a1.9,1.9,0,0,0,.67,0c.5-.09.66-.38.47-.84a6.64,6.64,0,0,0-.45-.88c-.19-.3-.39-.6-.6-.89-1-1.41-.38-2.34.89-3s2.72-1.29,4.1-1.89a7.43,7.43,0,0,1,3.16-.83,24.09,24.09,0,0,1,2.68.16,2.54,2.54,0,0,0,2.72-1.25c.57-1.16,1.3-2.24,1.79-3.45a5.78,5.78,0,0,1,2.36-2.83c.71-.44,1.36-1,2.08-1.42A2.16,2.16,0,0,1,59,24.55a.89.89,0,0,1,.53,1.39c-.1.21-.21.41-.31.62-.21.46-.05.84.46.88a3.13,3.13,0,0,0,3-1.07,20.92,20.92,0,0,0,1.45-2.24A4.5,4.5,0,0,1,66.72,22a2.7,2.7,0,0,0,.5-.18,6.68,6.68,0,0,1,3.25-.71c.84,0,1.69,0,2.53-.07a12.88,12.88,0,0,0,2.55-.47,4.84,4.84,0,0,1,3.9.53,3.12,3.12,0,0,0,1.64.55A2,2,0,0,0,82.73,20a1.47,1.47,0,0,0-.31-.67A2.09,2.09,0,0,1,82,17.61a1.38,1.38,0,0,1,1.66-1.3A5.07,5.07,0,0,1,87,18.09c.28.33.55.68.81,1a1.67,1.67,0,0,0,2.25.5A8.54,8.54,0,0,0,91,19.1a2.77,2.77,0,0,1,1.93-.3c.65.13,1.29.31,1.93.47a5,5,0,0,0,.53.11c.68.08.77.05,1.07-.56a5.9,5.9,0,0,1,1.47-1.93,9.3,9.3,0,0,0,1-1.21,1.88,1.88,0,0,1,1.65-.8,11.9,11.9,0,0,1,3,.22,7.9,7.9,0,0,1,3.69,2.35,6.71,6.71,0,0,0,.55.63,2.33,2.33,0,0,0,2.6.51,8.09,8.09,0,0,1,3.5-.18.75.75,0,0,1,.67.55c.1.35-.2.49-.41.66-.47.38-.42.84.15,1.08.33.14.69.2,1,.32a3.74,3.74,0,0,1,1.72,1.08,1,1,0,0,1,.28.6,2.25,2.25,0,0,0,2,2.46,4.21,4.21,0,0,1,2.84,2.13,3.74,3.74,0,0,0,2.93,1.85,20.25,20.25,0,0,1,2.32.46,7.54,7.54,0,0,1,2.4,1.47c1,.74,2,1.49,3,2.19a4.15,4.15,0,0,0,2.2.83,2,2,0,0,0,1.74-.6s0,0,0-.05c.5-.42,1-.93,1.75-.58a2.25,2.25,0,0,1,1.49,2,13.66,13.66,0,0,1-.49,4.4,21,21,0,0,0-.39,2.1,3,3,0,0,0,1.17,2.76c.6.52,1.24,1,1.86,1.48a4.53,4.53,0,0,1,1.75,2.6,11.38,11.38,0,0,0,.9,2.35c.42.88.91,1,1.81.58a2.3,2.3,0,0,1,.64-.25c.59-.07.86.15.91.75a7.27,7.27,0,0,1-.53,3.45c0,.09-.08.19-.11.28.9,1.31,1.83,2.58,2.7,3.9a75.33,75.33,0,0,1,9.24,19.5,78.26,78.26,0,0,1,3,14.43,85.67,85.67,0,0,1,.47,9.47,77.15,77.15,0,0,1-3.46,22.83,74,74,0,0,1-4.94,12.18,71.91,71.91,0,0,1-10.32,15.23c-1.53,1.71-3.11,3.39-4.76,5a65.34,65.34,0,0,1-8.43,6.85A71,71,0,0,1,123.92,169.05ZM107,164.29c-.37-.26-.61-.45-.87-.6-1.86-1.05-3.72-2.13-5.61-3.14a53.22,53.22,0,0,0-7.62-3.35,48.83,48.83,0,0,0-7.52-2,36.94,36.94,0,0,0-5.93-.63,4,4,0,0,1-1.49-.3,2.78,2.78,0,0,1-1-.84,2.32,2.32,0,0,1-.17-2.53,8.53,8.53,0,0,1,1.07-1.76c1.36-1.58,2.78-3.12,4.19-4.67a18.21,18.21,0,0,0,4.32-7.32,8.13,8.13,0,0,0-.42-5.88A3.6,3.6,0,0,0,82.47,129a8.6,8.6,0,0,0-3.71.8,4.46,4.46,0,0,1-2.51.47,1.22,1.22,0,0,1-1.09-1.75,4,4,0,0,1,.31-.52,1,1,0,0,0,0-1.23,2.93,2.93,0,0,0-.76-.73,2.9,2.9,0,0,0-2.44-.14,28.57,28.57,0,0,0-2.71,1,2.51,2.51,0,0,1-2.55-.17c-.21-.15-.43-.27-.65-.4-.66-.39-1.3-.8-2-1.18a2.5,2.5,0,0,0-2.74,0c-.86.52-1.25.44-2-.29a1.51,1.51,0,0,0-1.81-.31,6,6,0,0,0-1.94,1.18,1.87,1.87,0,0,1-3.1-.82,2.23,2.23,0,0,1-.16-.43,2.77,2.77,0,0,0-2.23-2.08c-1-.25-2.06-.36-3.06-.66a6.82,6.82,0,0,0-2.58-.18c-.43,0-.86.14-1.29.14a3.83,3.83,0,0,1-3.61-1.88A13.86,13.86,0,0,1,39,118a5.56,5.56,0,0,0-3.3-3.39,3.18,3.18,0,0,1-2-2.61,5.48,5.48,0,0,1,.19-2.35,2.64,2.64,0,0,0-.68-2.82c-.61-.57-1.29-1.06-2-1.67,0,.73.08,1.35.13,2A69.41,69.41,0,0,0,32.62,116,65.61,65.61,0,0,0,42,138.42a63.43,63.43,0,0,0,12,13.63,60.91,60.91,0,0,0,11.63,7.76,58.45,58.45,0,0,0,13.54,4.94,55.88,55.88,0,0,0,10.45,1.41c2,.08,4,0,6-.08A52.92,52.92,0,0,0,105,164.8C105.62,164.66,106.24,164.48,107,164.29Zm28.76-49.46a1.32,1.32,0,0,0-.05.32c0,1.17.08,2.35.14,3.52a4.82,4.82,0,0,1-2.36,4.66,7.52,7.52,0,0,1-4,1c-1.23,0-2.45-.2-3.67-.3-1.42-.12-2.85-.28-4.27-.34a18.55,18.55,0,0,0-5.25.46c-2.53.63-4.37,2-5,4.65a30,30,0,0,0-1,5.24,18.64,18.64,0,0,0,.56,6.14,33.5,33.5,0,0,0,3.2,7.52c1.62,2.93,3.26,5.83,4.88,8.76.47.84.88,1.71,1.37,2.66,1.65-1,3.31-2,4.89-3.06a62,62,0,0,0,11.83-10.47,64.94,64.94,0,0,0,10.65-16.73,67.25,67.25,0,0,0,4.54-14.74,65.19,65.19,0,0,0,1.12-9.94,69.28,69.28,0,0,0-1.57-17.63,64.27,64.27,0,0,0-3.48-11.09c-.68-1.62-1.44-3.2-2.18-4.85l-.78.3A2.09,2.09,0,0,0,144,74.1a1.92,1.92,0,0,1,.07,2c-.22.43-.42.87-.63,1.3a4.12,4.12,0,0,0-.58,2.34,4.11,4.11,0,0,1-.18,1.43,1.26,1.26,0,0,1-1.85.74,1.42,1.42,0,0,1-.42-.59,4,4,0,0,1-.11-.6,1.26,1.26,0,0,0-1.59-1.05,2.84,2.84,0,0,0-1.07.37c-.64.41-1.22.92-1.84,1.37a1.75,1.75,0,0,0-.72,1.67c.06,1,.1,2,.21,3a11,11,0,0,0,.36,1.55,1.88,1.88,0,0,0,1.57-.14,9.59,9.59,0,0,0,1.5-.79,5.85,5.85,0,0,1-2.08,2.16c-.44.29-.47.3-.18.76.71,1.12,1.41,2.25,2.18,3.33S140.21,95,141,96c1.11,1.49,1.15,3.4-.77,4.53-.57.34-1.16.64-1.74,1-.38.21-.5.42-.3.72a8.94,8.94,0,0,0,1.56,2.24,3,3,0,0,1,.64,3.64,3.49,3.49,0,0,1-1.92,1.43l-.7.23a2.69,2.69,0,0,1,.91,3.27C138.22,114.31,136.93,114.52,135.77,114.83Zm13.81-47.68v-.06l-.39,0Z"/></svg>