<svg xmlns="http://www.w3.org/2000/svg" width="81.769" height="81.773" viewBox="0 0 81.769 81.773">
  <path id="_ionicons_svg_ios-person" d="M145.738,143.708c-1.533-6.772-10.286-10.073-13.309-11.137-3.322-1.171-8.05-1.448-11.095-2.129-1.746-.383-4.28-1.342-5.132-2.364s-.341-10.5-.341-10.5a31.584,31.584,0,0,0,2.428-4.621,59.608,59.608,0,0,0,1.789-8.071s1.746,0,2.364-3.067c.66-3.343,1.7-4.642,1.576-7.134-.128-2.449-1.469-2.385-1.469-2.385s1.3-3.556,1.448-10.924C124.188,72.625,117.331,64,104.915,64c-12.585,0-19.293,8.625-19.1,17.377C85.984,88.745,87.24,92.3,87.24,92.3s-1.342-.064-1.469,2.385c-.128,2.492.916,3.791,1.576,7.134.6,3.067,2.364,3.067,2.364,3.067a59.609,59.609,0,0,0,1.789,8.071,31.587,31.587,0,0,0,2.428,4.621s.511,9.476-.341,10.5-3.386,1.98-5.132,2.364c-3.045.681-7.773.958-11.095,2.129-3.024,1.065-11.776,4.366-13.31,11.137a1.7,1.7,0,0,0,1.682,2.066h78.345A1.7,1.7,0,0,0,145.738,143.708Z" transform="translate(-64.01 -64)" fill="#d99962"/>
</svg>
