<svg xmlns="http://www.w3.org/2000/svg" width="23.985" height="23.991" viewBox="0 0 23.985 23.991">
  <path id="_ionicons_svg_md-bookmarks" d="M85.311,64H84c.937.356,1.424,1.287,1.424,2.667V85.324c0,1.38-.437,2.33-1.424,2.667h1.312a2.671,2.671,0,0,0,2.673-2.667V66.667A2.671,2.671,0,0,0,85.311,64Zm-3.729.012c-.087-.006-.175-.012-.262-.012H66.667A2.674,2.674,0,0,0,64,66.667V85.324a2.674,2.674,0,0,0,2.667,2.667H81.326c.087,0,.175-.006.262-.012a2.676,2.676,0,0,0,2.4-2.655V66.667A2.686,2.686,0,0,0,81.582,64.012Zm-8.588,11.98-3.5-2-3.5,2V66h7Z" transform="translate(-64 -64)" fill="#ffabab"/>
</svg>
