<svg xmlns="http://www.w3.org/2000/svg" width="19.251" height="28.876" viewBox="0 0 19.251 28.876">
  <path id="_ionicons_svg_ios-help" d="M201.731,160c5.64,0,9.52,3.128,9.52,7.625,0,2.978-1.444,5.038-4.226,6.678-2.617,1.519-3.5,2.632-3.5,4.557v1.188H198.3l-.045-1.293c-.256-3.1.827-5.023,3.549-6.617,2.542-1.519,3.609-2.482,3.609-4.346s-1.8-3.234-4.046-3.234a3.8,3.8,0,0,0-4.031,3.7H192C192.105,163.414,195.685,160,201.731,160Zm-3.955,25.778a3.229,3.229,0,1,1,3.218,3.1A3.15,3.15,0,0,1,197.775,185.778Z" transform="translate(-192 -160)"/>
</svg>
