<svg xmlns="http://www.w3.org/2000/svg" width="16.125" height="20.963" viewBox="0 0 16.125 20.963">
  <path id="_ionicons_svg_ios-lock" d="M110.11,55.249H108.9V52.9a4.838,4.838,0,1,0-9.675-.066v2.419H98.016A2.022,2.022,0,0,0,96,57.264v9.675a2.022,2.022,0,0,0,2.016,2.016H110.11a2.022,2.022,0,0,0,2.016-2.016V57.264A2.022,2.022,0,0,0,110.11,55.249Zm-5.342,6.289V65a.723.723,0,0,1-.67.726.706.706,0,0,1-.741-.705V61.537a1.613,1.613,0,1,1,1.411,0Zm2.721-6.289h-6.853V52.83a3.427,3.427,0,0,1,6.853,0Z" transform="translate(-96 -47.992)" fill="#fff"/>
</svg>
