<svg xmlns="http://www.w3.org/2000/svg" width="34" height="34" viewBox="0 0 34 34">
  <g id="_ionicons_svg_md-chatbubbles" transform="translate(-48 -48)">
    <path id="Path_48" data-name="Path 48" d="M54.931,177a4.266,4.266,0,0,1-3.662-3.662V160h-.785A2.494,2.494,0,0,0,48,162.485v22.362l4.781-4.74h17.58a2.524,2.524,0,0,0,2.485-2.525V177Z" transform="translate(0 -102.846)"/>
    <path id="Path_49" data-name="Path 49" d="M140.672,48H117.852A2.86,2.86,0,0,0,115,50.852V69.332a2.867,2.867,0,0,0,2.852,2.861h19.468l6.2,4.332V50.852A2.86,2.86,0,0,0,140.672,48Z" transform="translate(-61.524)"/>
  </g>
</svg>
