<svg xmlns="http://www.w3.org/2000/svg" width="21" height="27.3" viewBox="0 0 21 27.3">
  <path id="_ionicons_svg_ios-business" d="M99.281,46.362h14.437a1.181,1.181,0,1,0,0-2.362H99.281a1.181,1.181,0,0,0,0,2.362Zm16.537,1.312H97.181a1.185,1.185,0,0,0-.131,2.362V69.725A1.58,1.58,0,0,0,98.625,71.3H104.4a.527.527,0,0,0,.525-.525V68.15a.527.527,0,0,1,.525-.525h2.1a.527.527,0,0,1,.525.525v2.625a.527.527,0,0,0,.525.525h5.775a1.58,1.58,0,0,0,1.575-1.575V50.037a1.185,1.185,0,0,0-.131-2.362ZM102.3,65a.527.527,0,0,1-.525.525h-1.05A.527.527,0,0,1,100.2,65V63.95a.527.527,0,0,1,.525-.525h1.05a.527.527,0,0,1,.525.525Zm0-4.2a.527.527,0,0,1-.525.525h-1.05a.527.527,0,0,1-.525-.525V59.75a.527.527,0,0,1,.525-.525h1.05a.527.527,0,0,1,.525.525Zm0-4.2a.527.527,0,0,1-.525.525h-1.05a.527.527,0,0,1-.525-.525V55.55a.527.527,0,0,1,.525-.525h1.05a.527.527,0,0,1,.525.525Zm0-4.2a.527.527,0,0,1-.525.525h-1.05a.527.527,0,0,1-.525-.525V51.35a.527.527,0,0,1,.525-.525h1.05a.527.527,0,0,1,.525.525ZM107.55,65a.527.527,0,0,1-.525.525h-1.05A.527.527,0,0,1,105.45,65V63.95a.527.527,0,0,1,.525-.525h1.05a.527.527,0,0,1,.525.525Zm0-4.2a.527.527,0,0,1-.525.525h-1.05a.527.527,0,0,1-.525-.525V59.75a.527.527,0,0,1,.525-.525h1.05a.527.527,0,0,1,.525.525Zm0-4.2a.527.527,0,0,1-.525.525h-1.05a.527.527,0,0,1-.525-.525V55.55a.527.527,0,0,1,.525-.525h1.05a.527.527,0,0,1,.525.525Zm0-4.2a.527.527,0,0,1-.525.525h-1.05a.527.527,0,0,1-.525-.525V51.35a.527.527,0,0,1,.525-.525h1.05a.527.527,0,0,1,.525.525ZM112.8,65a.527.527,0,0,1-.525.525h-1.05A.527.527,0,0,1,110.7,65V63.95a.527.527,0,0,1,.525-.525h1.05a.527.527,0,0,1,.525.525Zm0-4.2a.527.527,0,0,1-.525.525h-1.05a.527.527,0,0,1-.525-.525V59.75a.527.527,0,0,1,.525-.525h1.05a.527.527,0,0,1,.525.525Zm0-4.2a.527.527,0,0,1-.525.525h-1.05a.527.527,0,0,1-.525-.525V55.55a.527.527,0,0,1,.525-.525h1.05a.527.527,0,0,1,.525.525Zm0-4.2a.527.527,0,0,1-.525.525h-1.05a.527.527,0,0,1-.525-.525V51.35a.527.527,0,0,1,.525-.525h1.05a.527.527,0,0,1,.525.525Z" transform="translate(-96 -44)" fill="#fff"/>
</svg>
