<svg xmlns="http://www.w3.org/2000/svg" width="26.764" height="17.393" viewBox="0 0 26.764 17.393">
  <g id="_ionicons_svg_ios-people" transform="translate(-31.5 -110.2)">
    <path id="Path_436" data-name="Path 436" d="M130.365,123.582c-.668-.238-1.758-.25-2.241-.435a3.166,3.166,0,0,1-1.037-.483,6.409,6.409,0,0,1-.173-1.7,2.744,2.744,0,0,0,.59-.835,9.274,9.274,0,0,0,.286-1.639s.393.167.548-.62c.131-.68.381-1.037.316-1.538s-.346-.381-.346-.381a4.463,4.463,0,0,0,.346-2.229,3.869,3.869,0,0,0-7.707,0,4.53,4.53,0,0,0,.34,2.229s-.28-.119-.346.381.179.858.316,1.538c.155.793.548.62.548.62a9.364,9.364,0,0,0,.286,1.639,2.744,2.744,0,0,0,.59.834,6.409,6.409,0,0,1-.173,1.7,3.047,3.047,0,0,1-1.037.477c-.477.185-1.568.209-2.241.447a4.207,4.207,0,0,0-2.73,4.006h16.589A4.2,4.2,0,0,0,130.365,123.582Z" transform="translate(-79.933)"/>
    <path id="Path_437" data-name="Path 437" d="M37.967,166.946a4.047,4.047,0,0,0,1.991-.554c-.924-1.4-.423-3.034-.614-4.56a2.515,2.515,0,0,0-2.784-2.432h-.024a2.523,2.523,0,0,0-2.76,2.432c-.191,1.52.34,3.338-.608,4.56a3.745,3.745,0,0,0,2,.495,3.019,3.019,0,0,1-.06,1,1.505,1.505,0,0,1-.715.328,13.831,13.831,0,0,0-1.544.429,2.51,2.51,0,0,0-1.347,2.217h4.786a4.282,4.282,0,0,1,1.907-1.776,4,4,0,0,1,1.472-.31s.227-.358-.519-.495a5.082,5.082,0,0,1-1.144-.4C37.89,167.751,37.967,166.946,37.967,166.946Zm13.829,0a4.047,4.047,0,0,1-1.991-.554c.924-1.4.423-3.034.614-4.56A2.515,2.515,0,0,1,53.2,159.4h.024a2.523,2.523,0,0,1,2.76,2.432c.191,1.52-.34,3.338.608,4.56a3.745,3.745,0,0,1-2,.495,3.019,3.019,0,0,0,.06,1,1.505,1.505,0,0,0,.715.328,13.831,13.831,0,0,1,1.544.429,2.51,2.51,0,0,1,1.347,2.217H53.477a4.282,4.282,0,0,0-1.907-1.776,4,4,0,0,0-1.472-.31s-.227-.358.519-.495a5.081,5.081,0,0,0,1.144-.4C51.874,167.751,51.8,166.946,51.8,166.946Z" transform="translate(0 -46.267)"/>
  </g>
</svg>
