<svg xmlns="http://www.w3.org/2000/svg" width="21.154" height="21.154" viewBox="0 0 21.154 21.154">
  <g id="_ionicons_svg_ios-person-add" transform="translate(-64.01 -64)">
    <path id="Path_438" data-name="Path 438" d="M81.709,81.739a25.668,25.668,0,0,0-2.87-.551,2.916,2.916,0,0,1-1.328-.611,10.073,10.073,0,0,1-.094-2.6.571.571,0,0,1,.061-.209,8.129,8.129,0,0,0,.567-1.1,12.5,12.5,0,0,0,.419-1.834.429.429,0,0,1,.22-.308,1,1,0,0,0,.43-.738,7.8,7.8,0,0,0,.408-1.845.779.779,0,0,0-.176-.523.416.416,0,0,1-.11-.408,11.617,11.617,0,0,0,.286-2.512c.05-2.264-1.724-4.5-4.93-4.5-3.256,0-4.986,2.231-4.936,4.5a12.116,12.116,0,0,0,.281,2.512.439.439,0,0,1-.11.408.751.751,0,0,0-.176.523,7.8,7.8,0,0,0,.408,1.845,1.015,1.015,0,0,0,.43.738.439.439,0,0,1,.22.308,12.506,12.506,0,0,0,.419,1.834,8.444,8.444,0,0,0,.567,1.1.388.388,0,0,1,.061.209,10.062,10.062,0,0,1-.094,2.6,2.916,2.916,0,0,1-1.328.611,25.668,25.668,0,0,0-2.87.551c-.782.275-3.046,1.129-3.443,2.881a.44.44,0,0,0,.435.534H84.722a.439.439,0,0,0,.43-.534C84.755,82.868,82.491,82.014,81.709,81.739Z" transform="translate(0 0)"/>
    <path id="Path_439" data-name="Path 439" d="M356.71,258.066h-1.487v-1.487a.578.578,0,0,0-1.157,0v1.487h-1.487a.578.578,0,1,0,0,1.157h1.487v1.487a.578.578,0,0,0,1.157,0v-1.487h1.487a.578.578,0,0,0,0-1.157Z" transform="translate(-272.125 -181.423)"/>
  </g>
</svg>
