<svg xmlns="http://www.w3.org/2000/svg" width="26.086" height="22.078" viewBox="0 0 26.086 22.078">
  <g id="_ionicons_svg_ios-log-out" transform="translate(-48 -80)">
    <path id="Path_14" data-name="Path 14" d="M64.559,98.315a.881.881,0,0,0-.878.878,1.132,1.132,0,0,1-1.129,1.129H50.885a1.132,1.132,0,0,1-1.129-1.129V82.885a1.132,1.132,0,0,1,1.129-1.129H62.552a1.132,1.132,0,0,1,1.129,1.129.878.878,0,0,0,1.756,0A2.886,2.886,0,0,0,62.552,80H50.885A2.886,2.886,0,0,0,48,82.885V99.193a2.886,2.886,0,0,0,2.885,2.885H62.552a2.886,2.886,0,0,0,2.885-2.885A.881.881,0,0,0,64.559,98.315Z" fill="#fff"/>
    <path id="Path_15" data-name="Path 15" d="M162.106,154.257a.873.873,0,0,0-.621-.257.858.858,0,0,0-.621.257.875.875,0,0,0,0,1.242l4.089,4.027H148.878a.878.878,0,1,0,0,1.756h16.095l-3.989,4.02a.886.886,0,0,0,0,1.242l.006.006a.907.907,0,0,0,.615.245.848.848,0,0,0,.621-.257l5.181-5.168a1.232,1.232,0,0,0,0-1.831Z" transform="translate(-93.728 -69.359)" fill="#fff"/>
  </g>
</svg>
