<svg xmlns="http://www.w3.org/2000/svg" width="17.819" height="17.824" viewBox="0 0 17.819 17.824">
  <path id="_ionicons_svg_ios-at" d="M81.819,71.9c0,3.439-1.61,5.606-4.158,5.606a2.294,2.294,0,0,1-2.469-1.731h-.186a2.718,2.718,0,0,1-2.678,1.666c-2.265,0-3.777-1.814-3.777-4.515,0-2.594,1.522-4.4,3.745-4.4a2.7,2.7,0,0,1,2.538,1.517h.186v-1.29h1.852v6a1.074,1.074,0,0,0,1.155,1.2c1.285,0,2.1-1.559,2.1-3.982,0-3.866-2.9-6.45-7.174-6.45a7.066,7.066,0,0,0-7.248,7.453c0,4.464,2.984,7.313,7.629,7.313a14.085,14.085,0,0,0,2.524-.213.734.734,0,0,1,.311,1.434,12.968,12.968,0,0,1-2.91.316c-5.647,0-9.262-3.494-9.262-8.91C64,67.629,67.689,64,73.068,64,78.237,64,81.819,67.225,81.819,71.9ZM70.552,72.97c0,1.717.807,2.756,2.121,2.756,1.383,0,2.255-1.067,2.255-2.756s-.872-2.733-2.232-2.733S70.552,71.248,70.552,72.97Z" transform="translate(-64 -64)" fill="#fff"/>
</svg>
