<svg xmlns="http://www.w3.org/2000/svg" width="28.125" height="26.117" viewBox="0 0 28.125 26.117">
  <g id="_ionicons_svg_md-analytics" transform="translate(-32 -48)">
    <path id="Path_157" data-name="Path 157" d="M53.8,170.427,48.332,178.8a2.982,2.982,0,0,1,.678,1.9,3.013,3.013,0,0,1-6.026,0,3.3,3.3,0,0,1,.05-.559l-3.615-2.1a2.994,2.994,0,0,1-2.09.841,3.03,3.03,0,0,1-1.481-.389L32,182.1v3.59a2.687,2.687,0,0,0,2.68,2.68H57.445a2.687,2.687,0,0,0,2.68-2.68V172.342L56.447,169.9a3.011,3.011,0,0,1-2.642.527Z" transform="translate(0 -114.249)" fill="#fff"/>
    <path id="Path_158" data-name="Path 158" d="M37.335,58.607a3.014,3.014,0,0,1,3.013,3.013c0,.132-.013.264-.025.389l3.772,2.109A2.986,2.986,0,0,1,46,63.44a3.153,3.153,0,0,1,.653.069l5.486-8.5a2.981,2.981,0,0,1-.559-1.745,3.013,3.013,0,0,1,6.026,0,3.274,3.274,0,0,1-.082.709l2.592,1.732V50.68A2.687,2.687,0,0,0,57.439,48H34.68A2.687,2.687,0,0,0,32,50.68V65.072l2.511-2.4a3.013,3.013,0,0,1,2.824-4.061Z" transform="translate(0 0)" fill="#fff"/>
  </g>
</svg>
