<svg xmlns="http://www.w3.org/2000/svg" width="37.981" height="37.983" viewBox="0 0 37.981 37.983">
  <path id="_ionicons_svg_ios-person" d="M101.972,101.023c-.712-3.145-4.778-4.679-6.182-5.173a46.093,46.093,0,0,0-5.153-.989,5.236,5.236,0,0,1-2.384-1.1c-.4-.475-.158-4.876-.158-4.876a14.671,14.671,0,0,0,1.128-2.146,27.687,27.687,0,0,0,.831-3.749s.811,0,1.1-1.424c.307-1.553.791-2.156.732-3.314-.059-1.138-.683-1.108-.683-1.108a17.343,17.343,0,0,0,.673-5.074C91.962,68.006,88.777,64,83.01,64c-5.846,0-8.962,4.006-8.873,8.071a18.09,18.09,0,0,0,.663,5.074s-.623-.03-.682,1.108c-.059,1.157.425,1.761.732,3.314.277,1.424,1.1,1.424,1.1,1.424a27.687,27.687,0,0,0,.831,3.749,14.671,14.671,0,0,0,1.128,2.146s.237,4.4-.158,4.876a5.236,5.236,0,0,1-2.384,1.1,46.094,46.094,0,0,0-5.153.989c-1.4.495-5.47,2.028-6.182,5.173a.791.791,0,0,0,.781.959H101.2A.789.789,0,0,0,101.972,101.023Z" transform="translate(-64.009 -64)"/>
</svg>
