<svg xmlns="http://www.w3.org/2000/svg" width="24.901" height="24.895" viewBox="0 0 24.901 24.895">
  <path id="_ionicons_svg_md-filing" d="M72.009,57.575H70.442V55.66l-.862-2.873H68.048V50.873L67.15,48H53.745l-.9,2.873v1.915H51.315l-.862,2.873v1.915H48.886L48,60.448V70.34c0,1.406,2.107,2.555,3.513,2.555H70.346A2.636,2.636,0,0,0,72.9,70.442V60.448Zm-16.349-6.7h9.575v1.915H55.66ZM53.206,55.66H67.689v1.915H53.206Zm16.876,6.7H65.139a4.789,4.789,0,0,1-9.384,0H50.813V60.448h19.27Z" transform="translate(-48 -48)" fill="#fff"/>
</svg>
