<svg xmlns="http://www.w3.org/2000/svg" width="23.941" height="35.937" viewBox="0 0 23.941 35.937">
  <g id="engineering" transform="translate(0 0)">
    <path id="Path_78" data-name="Path 78" d="M136.353,227.222a.462.462,0,0,0-.789.327v8.205a.462.462,0,0,0,.462.462h8.205a.462.462,0,0,0,.327-.789Zm.135,8.07v-6.627l6.627,6.627Z" transform="translate(-135.564 -209.426)" fill="#262014"/>
    <path id="Path_80" data-name="Path 80" d="M379.4,402.884a.462.462,0,0,0-.654.654l1.427,1.427a.462.462,0,0,0,.654-.654Z" transform="translate(-358.179 -370.322)" fill="#262014"/>
    <path id="Path_81" data-name="Path 81" d="M409.8,433.29a.462.462,0,0,0-.654.654l.029.029a.462.462,0,1,0,.654-.654Z" transform="translate(-386.028 -398.172)" fill="#262014"/>
    <path id="Path_82" data-name="Path 82" d="M237.446,18a.461.461,0,0,0,.327-.136l.074-.074a.462.462,0,0,0-.654-.654l-.074.074a.462.462,0,0,0,.327.789Z" transform="translate(-228.458 -17)" fill="#262014"/>
    <path id="Path_83" data-name="Path 83" d="M207.039,33.665a.461.461,0,0,0,.327-.135l1.427-1.427a.462.462,0,1,0-.654-.654l-1.427,1.427a.462.462,0,0,0,.327.789Z" transform="translate(-200.607 -30.11)" fill="#262014"/>
    <path id="Path_84" data-name="Path 84" d="M176.633,64.07a.461.461,0,0,0,.327-.135l1.427-1.427a.462.462,0,1,0-.654-.654l-1.427,1.427a.462.462,0,0,0,.327.789Z" transform="translate(-172.757 -57.96)" fill="#262014"/>
    <path id="Path_85" data-name="Path 85" d="M146.228,94.476a.461.461,0,0,0,.327-.135l1.427-1.427a.462.462,0,0,0-.654-.654L145.9,93.686a.462.462,0,0,0,.327.789Z" transform="translate(-144.908 -85.809)" fill="#262014"/>
  </g>
</svg>
