<svg xmlns="http://www.w3.org/2000/svg" width="27.788" height="27.418" viewBox="0 0 27.788 27.418">
  <g id="handyman-tools" transform="translate(0 0)">
    <path id="Path_68" data-name="Path 68" d="M14.715,20.048a5.371,5.371,0,0,0,1.635-.256l3.141,3.139,3.44-3.439L19.792,16.35a5.346,5.346,0,0,0-1.3-5.4A5.284,5.284,0,0,0,14.729,9.4a5.378,5.378,0,0,0-2.3.52.366.366,0,0,0-.1.589l3.3,3.306a1.285,1.285,0,0,1,0,1.821,1.316,1.316,0,0,1-1.821,0l-3.306-3.3a.366.366,0,0,0-.589.1,5.323,5.323,0,0,0,4.8,7.621Z" transform="translate(-9.212 -9.396)" fill="#d98e04"/>
    <path id="Path_69" data-name="Path 69" d="M156.9,151.566a5.372,5.372,0,0,0-1.638.257l-3.474-3.474-3.442,3.442,3.475,3.475a5.351,5.351,0,0,0,1.3,5.4,5.285,5.285,0,0,0,3.76,1.557,5.379,5.379,0,0,0,2.3-.52.366.366,0,0,0,.1-.589l-3.3-3.306a1.284,1.284,0,0,1,0-1.82,1.316,1.316,0,0,1,1.82,0l3.305,3.3a.366.366,0,0,0,.589-.1,5.322,5.322,0,0,0-4.8-7.621Z" transform="translate(-134.61 -134.801)" fill="#d98e04"/>
    <path id="Path_70" data-name="Path 70" d="M126.32,19.712s.575.5,1.049.268c.536-.27,2.045,1.218,2.527,1.567l.011,0-.263.264a.884.884,0,1,0,1.25,1.249l2.084-2.082a.885.885,0,0,0-1.251-1.252l-.347.347c-.288-.4-.766-1.071-.7-1.3.254-.98-1.743-3.294-1.743-3.294-4.96-4.959-8.273-4.846-9.849-4.3-.633.218-.515.355.142.471,4.782.835,5.375,3.654,4.564,4.742-.312.42.143.927.143.927l.171.17-8.073,8.072a1.588,1.588,0,0,1,.31.235L117.7,27.16a1.578,1.578,0,0,1,.233.308L126,19.395Z" transform="translate(-105.447 -10.782)" fill="#d98e04"/>
    <path id="Path_71" data-name="Path 71" d="M17.848,166.835a.84.84,0,0,0-1.124-.041l-8.972,8.044a.706.706,0,0,0-.039,1.046l2.444,2.442a.706.706,0,0,0,1.045-.037l8.046-8.975a.839.839,0,0,0-.041-1.122Z" transform="translate(-7.5 -151.271)" fill="#d98e04"/>
  </g>
</svg>
