<svg xmlns="http://www.w3.org/2000/svg" width="29.534" height="29.534" viewBox="0 0 29.534 29.534">
  <g id="hook" transform="translate(0 0)">
    <path id="Path_86" data-name="Path 86" d="M136,272h.984v.984H136Zm0,0" transform="translate(-127.632 -255.264)" fill="#d99962"/>
    <path id="Path_87" data-name="Path 87" d="M168,272h.984v.984H168Zm0,0" transform="translate(-157.663 -255.264)" fill="#d99962"/>
    <path id="Path_88" data-name="Path 88" d="M200,272h.984v.984H200Zm0,0" transform="translate(-187.694 -255.264)" fill="#d99962"/>
    <path id="Path_89" data-name="Path 89" d="M136,304h.984v.984H136Zm0,0" transform="translate(-127.632 -285.295)" fill="#d99962"/>
    <path id="Path_90" data-name="Path 90" d="M168,304h.984v.984H168Zm0,0" transform="translate(-157.663 -285.295)" fill="#d99962"/>
    <path id="Path_91" data-name="Path 91" d="M200,304h.984v.984H200Zm0,0" transform="translate(-187.694 -285.295)" fill="#d99962"/>
    <path id="Path_92" data-name="Path 92" d="M232,304h.984v.984H232Zm0,0" transform="translate(-217.725 -285.295)" fill="#d99962"/>
    <path id="Path_93" data-name="Path 93" d="M264,304h.984v.984H264Zm0,0" transform="translate(-247.756 -285.295)" fill="#d99962"/>
    <path id="Path_94" data-name="Path 94" d="M136,336h.984v.984H136Zm0,0" transform="translate(-127.632 -315.326)" fill="#d99962"/>
    <path id="Path_95" data-name="Path 95" d="M168,336h.984v.984H168Zm0,0" transform="translate(-157.663 -315.326)" fill="#d99962"/>
    <path id="Path_96" data-name="Path 96" d="M200,336h.984v.984H200Zm0,0" transform="translate(-187.694 -315.326)" fill="#d99962"/>
    <path id="Path_97" data-name="Path 97" d="M232,336h.984v.984H232Zm0,0" transform="translate(-217.725 -315.326)" fill="#d99962"/>
    <path id="Path_98" data-name="Path 98" d="M264,336h.984v.984H264Zm0,0" transform="translate(-247.756 -315.326)" fill="#d99962"/>
    <path id="Path_99" data-name="Path 99" d="M136,368h.984v.984H136Zm0,0" transform="translate(-127.632 -345.357)" fill="#d99962"/>
    <path id="Path_100" data-name="Path 100" d="M168,368h.984v.984H168Zm0,0" transform="translate(-157.663 -345.357)" fill="#d99962"/>
    <path id="Path_101" data-name="Path 101" d="M200,368h.984v.984H200Zm0,0" transform="translate(-187.694 -345.357)" fill="#d99962"/>
    <path id="Path_102" data-name="Path 102" d="M232,368h.984v.984H232Zm0,0" transform="translate(-217.725 -345.357)" fill="#d99962"/>
    <path id="Path_103" data-name="Path 103" d="M264,368h.984v.984H264Zm0,0" transform="translate(-247.756 -345.357)" fill="#d99962"/>
    <path id="Path_104" data-name="Path 104" d="M136,400h.984v.984H136Zm0,0" transform="translate(-127.632 -375.389)" fill="#d99962"/>
    <path id="Path_105" data-name="Path 105" d="M168,400h.984v.984H168Zm0,0" transform="translate(-157.663 -375.389)" fill="#d99962"/>
    <path id="Path_106" data-name="Path 106" d="M200,400h.984v.984H200Zm0,0" transform="translate(-187.694 -375.389)" fill="#d99962"/>
    <path id="Path_107" data-name="Path 107" d="M232,400h.984v.984H232Zm0,0" transform="translate(-217.725 -375.389)" fill="#d99962"/>
    <path id="Path_108" data-name="Path 108" d="M264,400h.984v.984H264Zm0,0" transform="translate(-247.756 -375.389)" fill="#d99962"/>
    <path id="Path_109" data-name="Path 109" d="M136,432h.984v.984H136Zm0,0" transform="translate(-127.632 -405.42)" fill="#d99962"/>
    <path id="Path_110" data-name="Path 110" d="M168,432h.984v.984H168Zm0,0" transform="translate(-157.663 -405.42)" fill="#d99962"/>
    <path id="Path_111" data-name="Path 111" d="M200,432h.984v.984H200Zm0,0" transform="translate(-187.694 -405.42)" fill="#d99962"/>
    <path id="Path_112" data-name="Path 112" d="M232,432h.984v.984H232Zm0,0" transform="translate(-217.725 -405.42)" fill="#d99962"/>
    <path id="Path_113" data-name="Path 113" d="M264,432h.984v.984H264Zm0,0" transform="translate(-247.756 -405.42)" fill="#d99962"/>
    <path id="Path_114" data-name="Path 114" d="M29.042,1.477H25.6V.492A.492.492,0,0,0,25.1,0H20.181a.492.492,0,0,0-.492.492v.984H.492A.492.492,0,0,0,0,1.969V3.938a.492.492,0,0,0,.492.492H1.969v9.352a.492.492,0,0,0,.492.492.492.492,0,1,1-.492.492H.984a1.465,1.465,0,0,0,.377.975L.1,17.425l.006,0a.482.482,0,0,0-.1.29v1.969a.492.492,0,0,0,.144.348l.984.984a.492.492,0,0,0,.348.144H3.446a.492.492,0,0,0,.348-.144l.984-.984a.492.492,0,0,0,.144-.348V17.72a.482.482,0,0,0-.1-.29l.006,0L3.561,15.742a1.468,1.468,0,0,0-.608-2.368V4.43H19.689v.492a.492.492,0,0,0,.492.492h.984V28.549H19.2V8.86h-.984v1.969H15.259V9.845h-.984v.984H11.321v-.492h-.984v.492H7.383V9.352h6.4V8.368h-6.4V6.4H6.4v22.15H5.618L3.3,26.233a.492.492,0,0,0-.7,0L.288,28.549H0v.984H29.534v-.984H29.15a1.463,1.463,0,0,0-.709-2.4,1.477,1.477,0,1,0-2.737,0,1.463,1.463,0,0,0-.709,2.4h-.876V5.415H25.1a.492.492,0,0,0,.492-.492V4.43h3.446a.492.492,0,0,0,.492-.492V1.969a.492.492,0,0,0-.492-.492ZM2.707,16.244l.738.984H1.477l.738-.984Zm1.231,3.242-.7.7H1.68l-.7-.7V18.213H3.938ZM26.925,2.461,25.6,3.347V2.461ZM20.674.984h1.969V2.953H20.674ZM7.383,2.56l1.329.886H6.054ZM4.43,3.347,3.1,2.461H5.759Zm4.578-.886h2.658l-1.329.886Zm4.283.1,1.329.886H11.961Zm1.624-.1h2.658l-1.329.886Zm-13.93,0h.345l1.477.984H.984Zm16.883.984,1.477-.984h.345v.984Zm5.267,23.479L22.249,25.6l.886-1.329Zm0-11.814-.886-1.329.886-1.329Zm-.984.3.886,1.329-.886,1.329Zm0-3.249V9.5l.886,1.329Zm0,9.156.886,1.329-.886,1.329Zm.984-.3-.886-1.326.886-1.329Zm-.886-13.14.886-1.329V9.2Zm-.1-1.624V5.415h.557Zm-3.938,5.562v4.922H15.259V11.814Zm-3.938,0v4.233l-1.132-1.119a.493.493,0,0,0-.345-.142H11.321V11.814Zm-3.938,0v.821H7.383v-.821ZM2.953,27.277l1.273,1.273H1.68Zm4.43,1.273V13.619h2.953V15.28a.492.492,0,0,0,.492.492H12.6l1.827,1.806a.492.492,0,0,0,.345.142h3.446V28.549ZM22.15,27.221l.886,1.329H22.15Zm5.907.837a.492.492,0,1,1,.492-.492A.492.492,0,0,1,28.057,28.057ZM27.073,25.1a.492.492,0,1,1-.492.492A.492.492,0,0,1,27.073,25.1Zm-.984,1.969a.492.492,0,1,1-.492.492A.492.492,0,0,1,26.088,27.073ZM24.611,4.43H20.674V3.938h2.461a.492.492,0,0,0,.492-.492V.985h.984Zm2.609-.984,1.329-.886v.886Zm0,0" transform="translate(0)" fill="#ffedb7"/>
  </g>
</svg>
