<svg xmlns="http://www.w3.org/2000/svg" width="129.135" height="78.408" viewBox="0 0 129.135 78.408">
  <g id="logo" transform="translate(-1.065 -1.065)">
    <g id="Layer_1" data-name="Layer 1">
      <path id="Path_28" data-name="Path 28" d="M980.5,266.792V245.5h29.434s7.891-.125,7.891,8.141v24.3l-18.662-18.287-9.895,16.158S987.639,271.3,980.5,266.792Z" transform="translate(-917.686 -244.435)" fill="#fff"/>
      <path id="Path_29" data-name="Path 29" d="M745.177,272.033s-8.517-3.382-14.028-2.38v12.9H719.5v-8.267L745.177,255.5Z" transform="translate(-689.377 -253.183)" fill="#fff"/>
      <path id="Path_30" data-name="Path 30" d="M532.966,245.5l-41.584,30.06H487.5l29.058-19.289v-3.883s-.877-6.889,7.766-6.889Z" transform="translate(-486.435 -244.435)" fill="#fff"/>
      <path id="Path_31" data-name="Path 31" d="M875.53,479.391H860.5v33.818h6.012a12.188,12.188,0,0,0,9.018-3.975,25.971,25.971,0,0,0,3.257-5.043H866.512l14.4-24.8c.063-1.691-3.57-6.7-5.386-7.891Z" transform="translate(-812.716 -442.128)" fill="#fff"/>
      <path id="Path_32" data-name="Path 32" d="M1023.5,744.142h26.3a8.822,8.822,0,0,0,5.01-6.263l30.687,2.38s-1.879.376-5.01-4.76h-51.6S1025.629,742.389,1023.5,744.142Z" transform="translate(-955.3 -673.062)" fill="#fff"/>
      <path id="Path_33" data-name="Path 33" d="M1084.625,473.684l24.174-.125v-9.644l9.707,9.707h4.7L1091.765,444.5l-7.265,13.151S1087.882,464.039,1084.625,473.684Z" transform="translate(-1008.66 -418.51)" fill="#fff"/>
      <path id="Path_34" data-name="Path 34" d="M860.5,427.763V421.5s6.638.125,8.016,3.131v3.131Z" transform="translate(-812.716 -398.391)" fill="#fff"/>
      <path id="Path_35" data-name="Path 35" d="M1004.51,595.5a31.569,31.569,0,0,1-1,9.269H999.5Z" transform="translate(-934.306 -550.597)" fill="#fff"/>
      <path id="Path_36" data-name="Path 36" d="M581.065,534.5H548.5l21.418,2v24.174s0,7.515,9.77,6.638v9.394h1.378Z" transform="translate(-539.795 -497.238)" fill="#fff"/>
      <line id="Line_12" data-name="Line 12" x1="1.523" y2="1.552" transform="translate(98.637 33.57)" fill="none" stroke="#fff" stroke-miterlimit="10" stroke-width="1"/>
      <line id="Line_13" data-name="Line 13" x1="0.977" y2="0.995" transform="translate(98.29 32.693)" fill="none" stroke="#fff" stroke-miterlimit="10" stroke-width="1"/>
      <line id="Line_14" data-name="Line 14" x1="0.978" y2="0.996" transform="translate(97.397 31.815)" fill="none" stroke="#fff" stroke-miterlimit="10" stroke-width="1"/>
      <line id="Line_15" data-name="Line 15" x1="0.978" y2="0.995" transform="translate(96.504 30.938)" fill="none" stroke="#fff" stroke-miterlimit="10" stroke-width="1"/>
      <line id="Line_16" data-name="Line 16" x1="0.977" y2="0.995" transform="translate(95.612 30.062)" fill="none" stroke="#fff" stroke-miterlimit="10" stroke-width="1"/>
      <line id="Line_17" data-name="Line 17" x1="1.524" y2="1.552" transform="translate(94.172 29.185)" fill="none" stroke="#fff" stroke-miterlimit="10" stroke-width="1"/>
      <line id="Line_18" data-name="Line 18" x1="0.977" y2="0.996" transform="translate(93.736 28.219)" fill="none" stroke="#fff" stroke-miterlimit="10" stroke-width="1"/>
      <line id="Line_19" data-name="Line 19" x1="0.977" y2="0.995" transform="translate(92.843 27.343)" fill="none" stroke="#fff" stroke-miterlimit="10" stroke-width="1"/>
      <line id="Line_20" data-name="Line 20" x1="0.978" y2="0.995" transform="translate(91.95 26.466)" fill="none" stroke="#fff" stroke-miterlimit="10" stroke-width="1"/>
      <line id="Line_21" data-name="Line 21" x1="0.978" y2="0.995" transform="translate(91.057 25.589)" fill="none" stroke="#fff" stroke-miterlimit="10" stroke-width="1"/>
      <line id="Line_22" data-name="Line 22" x1="1.524" y2="1.552" transform="translate(89.618 24.711)" fill="none" stroke="#fff" stroke-miterlimit="10" stroke-width="1"/>
      <line id="Line_23" data-name="Line 23" x1="0.977" y2="0.995" transform="translate(89.272 23.834)" fill="none" stroke="#fff" stroke-miterlimit="10" stroke-width="1"/>
      <line id="Line_24" data-name="Line 24" x1="0.977" y2="0.995" transform="translate(88.379 22.957)" fill="none" stroke="#fff" stroke-miterlimit="10" stroke-width="1"/>
      <line id="Line_25" data-name="Line 25" x1="0.977" y2="0.995" transform="translate(87.486 22.081)" fill="none" stroke="#fff" stroke-miterlimit="10" stroke-width="1"/>
      <line id="Line_26" data-name="Line 26" x1="0.977" y2="0.996" transform="translate(86.593 21.203)" fill="none" stroke="#fff" stroke-miterlimit="10" stroke-width="1"/>
      <line id="Line_27" data-name="Line 27" x1="1.524" y2="1.552" transform="translate(85.153 20.326)" fill="none" stroke="#fff" stroke-miterlimit="10" stroke-width="1"/>
      <line id="Line_28" data-name="Line 28" x1="0.977" y2="0.995" transform="translate(84.807 19.449)" fill="none" stroke="#fff" stroke-miterlimit="10" stroke-width="1"/>
      <line id="Line_29" data-name="Line 29" x1="0.977" y2="0.995" transform="translate(83.914 18.572)" fill="none" stroke="#fff" stroke-miterlimit="10" stroke-width="1"/>
      <line id="Line_30" data-name="Line 30" x1="0.977" y2="0.995" transform="translate(83.021 17.696)" fill="none" stroke="#fff" stroke-miterlimit="10" stroke-width="1"/>
      <g id="Group_156" data-name="Group 156">
        <line id="Line_31" data-name="Line 31" x2="0.964" y2="1.336" transform="translate(41.788 4.477)" fill="#999" stroke="#fff" stroke-miterlimit="10" stroke-width="1"/>
        <line id="Line_32" data-name="Line 32" x2="0.964" y2="1.336" transform="translate(42.802 3.744)" fill="#999" stroke="#fff" stroke-miterlimit="10" stroke-width="1"/>
        <line id="Line_33" data-name="Line 33" x2="0.966" y2="1.336" transform="translate(43.817 3.01)" fill="#999" stroke="#fff" stroke-miterlimit="10" stroke-width="1"/>
        <line id="Line_34" data-name="Line 34" x2="1.506" y2="2.085" transform="translate(44.831 2.277)" fill="#999" stroke="#fff" stroke-miterlimit="10" stroke-width="1"/>
        <line id="Line_35" data-name="Line 35" x2="0.964" y2="1.336" transform="translate(40.773 5.209)" fill="#999" stroke="#fff" stroke-miterlimit="10" stroke-width="1"/>
        <line id="Line_36" data-name="Line 36" x2="1.506" y2="2.085" transform="translate(39.759 5.942)" fill="#999" stroke="#fff" stroke-miterlimit="10" stroke-width="1"/>
        <line id="Line_37" data-name="Line 37" x2="0.966" y2="1.336" transform="translate(38.743 6.675)" fill="#999" stroke="#fff" stroke-miterlimit="10" stroke-width="1"/>
        <line id="Line_38" data-name="Line 38" x2="0.966" y2="1.336" transform="translate(37.728 7.407)" fill="#999" stroke="#fff" stroke-miterlimit="10" stroke-width="1"/>
        <line id="Line_39" data-name="Line 39" x2="0.966" y2="1.336" transform="translate(36.714 8.141)" fill="#999" stroke="#fff" stroke-miterlimit="10" stroke-width="1"/>
        <line id="Line_40" data-name="Line 40" x2="0.966" y2="1.336" transform="translate(35.699 8.874)" fill="#999" stroke="#fff" stroke-miterlimit="10" stroke-width="1"/>
        <line id="Line_41" data-name="Line 41" x2="1.507" y2="2.085" transform="translate(34.685 9.607)" fill="#999" stroke="#fff" stroke-miterlimit="10" stroke-width="1"/>
        <line id="Line_42" data-name="Line 42" x2="0.966" y2="1.336" transform="translate(33.67 10.34)" fill="#999" stroke="#fff" stroke-miterlimit="10" stroke-width="1"/>
        <line id="Line_43" data-name="Line 43" x2="0.966" y2="1.336" transform="translate(32.656 11.072)" fill="#999" stroke="#fff" stroke-miterlimit="10" stroke-width="1"/>
        <line id="Line_44" data-name="Line 44" x2="0.966" y2="1.336" transform="translate(31.641 11.806)" fill="#999" stroke="#fff" stroke-miterlimit="10" stroke-width="1"/>
        <line id="Line_45" data-name="Line 45" x2="0.966" y2="1.336" transform="translate(30.627 12.539)" fill="#999" stroke="#fff" stroke-miterlimit="10" stroke-width="1"/>
        <line id="Line_46" data-name="Line 46" x2="1.506" y2="2.084" transform="translate(29.612 13.272)" fill="#999" stroke="#fff" stroke-miterlimit="10" stroke-width="1"/>
        <line id="Line_47" data-name="Line 47" x2="0.966" y2="1.336" transform="translate(28.496 14.078)" fill="#999" stroke="#fff" stroke-miterlimit="10" stroke-width="1"/>
        <line id="Line_48" data-name="Line 48" x2="0.966" y2="1.336" transform="translate(27.482 14.811)" fill="#999" stroke="#fff" stroke-miterlimit="10" stroke-width="1"/>
        <line id="Line_49" data-name="Line 49" x2="0.966" y2="1.336" transform="translate(26.467 15.544)" fill="#999" stroke="#fff" stroke-miterlimit="10" stroke-width="1"/>
        <line id="Line_50" data-name="Line 50" x2="0.964" y2="1.336" transform="translate(25.452 16.276)" fill="#999" stroke="#fff" stroke-miterlimit="10" stroke-width="1"/>
        <line id="Line_51" data-name="Line 51" x2="1.506" y2="2.085" transform="translate(24.438 17.009)" fill="#999" stroke="#fff" stroke-miterlimit="10" stroke-width="1"/>
        <line id="Line_52" data-name="Line 52" x2="0.964" y2="1.336" transform="translate(23.423 17.743)" fill="#999" stroke="#fff" stroke-miterlimit="10" stroke-width="1"/>
        <line id="Line_53" data-name="Line 53" x2="0.964" y2="1.336" transform="translate(22.409 18.476)" fill="#999" stroke="#fff" stroke-miterlimit="10" stroke-width="1"/>
        <line id="Line_54" data-name="Line 54" x2="0.966" y2="1.336" transform="translate(21.393 19.209)" fill="#999" stroke="#fff" stroke-miterlimit="10" stroke-width="1"/>
        <line id="Line_55" data-name="Line 55" x2="0.966" y2="1.336" transform="translate(20.378 19.941)" fill="#999" stroke="#fff" stroke-miterlimit="10" stroke-width="1"/>
        <line id="Line_56" data-name="Line 56" x2="1.507" y2="2.085" transform="translate(19.364 20.674)" fill="#999" stroke="#fff" stroke-miterlimit="10" stroke-width="1"/>
        <line id="Line_57" data-name="Line 57" x2="0.966" y2="1.336" transform="translate(18.349 21.408)" fill="#999" stroke="#fff" stroke-miterlimit="10" stroke-width="1"/>
        <line id="Line_58" data-name="Line 58" x2="0.966" y2="1.336" transform="translate(17.335 22.141)" fill="#999" stroke="#fff" stroke-miterlimit="10" stroke-width="1"/>
        <line id="Line_59" data-name="Line 59" x2="0.966" y2="1.336" transform="translate(16.32 22.874)" fill="#999" stroke="#fff" stroke-miterlimit="10" stroke-width="1"/>
        <line id="Line_60" data-name="Line 60" x2="1.507" y2="2.085" transform="translate(15.306 23.606)" fill="#999" stroke="#fff" stroke-miterlimit="10" stroke-width="1"/>
      </g>
      <line id="Line_61" data-name="Line 61" x1="0.02" y1="2.176" transform="translate(76.598 60.368)" fill="none" stroke="#fff" stroke-miterlimit="10" stroke-width="1"/>
      <line id="Line_62" data-name="Line 62" x1="0.013" y1="1.394" transform="translate(77.857 61.138)" fill="none" stroke="#fff" stroke-miterlimit="10" stroke-width="1"/>
      <line id="Line_63" data-name="Line 63" x1="0.013" y1="1.394" transform="translate(79.109 61.127)" fill="none" stroke="#fff" stroke-miterlimit="10" stroke-width="1"/>
      <line id="Line_64" data-name="Line 64" x1="0.013" y1="1.394" transform="translate(80.36 61.115)" fill="none" stroke="#fff" stroke-miterlimit="10" stroke-width="1"/>
      <line id="Line_65" data-name="Line 65" x1="0.013" y1="1.394" transform="translate(81.612 61.104)" fill="none" stroke="#fff" stroke-miterlimit="10" stroke-width="1"/>
      <line id="Line_66" data-name="Line 66" x1="0.019" y1="2.176" transform="translate(82.857 60.311)" fill="none" stroke="#fff" stroke-miterlimit="10" stroke-width="1"/>
      <line id="Line_67" data-name="Line 67" x1="0.013" y1="1.394" transform="translate(84.241 61.08)" fill="none" stroke="#fff" stroke-miterlimit="10" stroke-width="1"/>
      <line id="Line_68" data-name="Line 68" x1="0.013" y1="1.394" transform="translate(85.492 61.069)" fill="none" stroke="#fff" stroke-miterlimit="10" stroke-width="1"/>
      <line id="Line_69" data-name="Line 69" x1="0.013" y1="1.394" transform="translate(86.743 61.058)" fill="none" stroke="#fff" stroke-miterlimit="10" stroke-width="1"/>
      <line id="Line_70" data-name="Line 70" x1="0.013" y1="1.394" transform="translate(87.996 61.047)" fill="none" stroke="#fff" stroke-miterlimit="10" stroke-width="1"/>
      <line id="Line_71" data-name="Line 71" x1="0.02" y1="2.176" transform="translate(89.24 60.254)" fill="none" stroke="#fff" stroke-miterlimit="10" stroke-width="1"/>
      <line id="Line_72" data-name="Line 72" x1="0.013" y1="1.394" transform="translate(90.498 61.024)" fill="none" stroke="#fff" stroke-miterlimit="10" stroke-width="1"/>
      <line id="Line_73" data-name="Line 73" x1="0.013" y1="1.394" transform="translate(91.75 61.013)" fill="none" stroke="#fff" stroke-miterlimit="10" stroke-width="1"/>
      <line id="Line_74" data-name="Line 74" x1="0.013" y1="1.394" transform="translate(93.002 61.001)" fill="none" stroke="#fff" stroke-miterlimit="10" stroke-width="1"/>
      <line id="Line_75" data-name="Line 75" x1="0.013" y1="1.394" transform="translate(94.253 60.99)" fill="none" stroke="#fff" stroke-miterlimit="10" stroke-width="1"/>
      <line id="Line_76" data-name="Line 76" x1="0.019" y1="2.176" transform="translate(95.498 60.197)" fill="none" stroke="#fff" stroke-miterlimit="10" stroke-width="1"/>
      <line id="Line_77" data-name="Line 77" x1="0.013" y1="1.394" transform="translate(96.756 60.968)" fill="none" stroke="#fff" stroke-miterlimit="10" stroke-width="1"/>
      <line id="Line_78" data-name="Line 78" x1="0.013" y1="1.394" transform="translate(98.008 60.956)" fill="none" stroke="#fff" stroke-miterlimit="10" stroke-width="1"/>
      <line id="Line_79" data-name="Line 79" x1="0.013" y1="1.394" transform="translate(99.26 60.945)" fill="none" stroke="#fff" stroke-miterlimit="10" stroke-width="1"/>
      <g id="Group_157" data-name="Group 157">
        <line id="Line_80" data-name="Line 80" x2="1.648" y2="0.003" transform="translate(41.342 43.363)" fill="#999" stroke="#fff" stroke-miterlimit="10" stroke-width="1"/>
        <line id="Line_81" data-name="Line 81" x2="1.65" y2="0.004" transform="translate(41.344 42.111)" fill="#999" stroke="#fff" stroke-miterlimit="10" stroke-width="1"/>
        <line id="Line_82" data-name="Line 82" x2="1.648" y2="0.004" transform="translate(41.348 40.86)" fill="#999" stroke="#fff" stroke-miterlimit="10" stroke-width="1"/>
        <line id="Line_83" data-name="Line 83" x2="2.571" y2="0.005" transform="translate(41.351 39.608)" fill="#999" stroke="#fff" stroke-miterlimit="10" stroke-width="1"/>
        <line id="Line_84" data-name="Line 84" x2="1.648" y2="0.004" transform="translate(41.339 44.615)" fill="#999" stroke="#fff" stroke-miterlimit="10" stroke-width="1"/>
        <line id="Line_85" data-name="Line 85" x2="2.571" y2="0.006" transform="translate(41.337 45.866)" fill="#999" stroke="#fff" stroke-miterlimit="10" stroke-width="1"/>
        <line id="Line_86" data-name="Line 86" x2="1.65" y2="0.004" transform="translate(41.333 47.117)" fill="#999" stroke="#fff" stroke-miterlimit="10" stroke-width="1"/>
        <line id="Line_87" data-name="Line 87" x2="1.648" y2="0.004" transform="translate(41.331 48.37)" fill="#999" stroke="#fff" stroke-miterlimit="10" stroke-width="1"/>
        <line id="Line_88" data-name="Line 88" x2="1.648" y2="0.004" transform="translate(41.328 49.621)" fill="#999" stroke="#fff" stroke-miterlimit="10" stroke-width="1"/>
        <line id="Line_89" data-name="Line 89" x2="1.648" y2="0.004" transform="translate(41.326 50.872)" fill="#999" stroke="#fff" stroke-miterlimit="10" stroke-width="1"/>
        <line id="Line_90" data-name="Line 90" x2="2.573" y2="0.005" transform="translate(41.322 52.125)" fill="#999" stroke="#fff" stroke-miterlimit="10" stroke-width="1"/>
        <line id="Line_91" data-name="Line 91" x2="1.648" y2="0.004" transform="translate(41.319 53.376)" fill="#999" stroke="#fff" stroke-miterlimit="10" stroke-width="1"/>
        <line id="Line_92" data-name="Line 92" x2="1.648" y2="0.004" transform="translate(41.317 54.627)" fill="#999" stroke="#fff" stroke-miterlimit="10" stroke-width="1"/>
        <line id="Line_93" data-name="Line 93" x2="1.65" y2="0.004" transform="translate(41.313 55.88)" fill="#999" stroke="#fff" stroke-miterlimit="10" stroke-width="1"/>
        <line id="Line_94" data-name="Line 94" x2="1.65" y2="0.004" transform="translate(41.311 57.131)" fill="#999" stroke="#fff" stroke-miterlimit="10" stroke-width="1"/>
        <line id="Line_95" data-name="Line 95" x2="2.571" y2="0.006" transform="translate(41.308 58.382)" fill="#999" stroke="#fff" stroke-miterlimit="10" stroke-width="1"/>
        <line id="Line_96" data-name="Line 96" x2="1.65" y2="0.004" transform="translate(41.304 59.76)" fill="#999" stroke="#fff" stroke-miterlimit="10" stroke-width="1"/>
        <line id="Line_97" data-name="Line 97" x2="1.65" y2="0.004" transform="translate(41.302 61.011)" fill="#999" stroke="#fff" stroke-miterlimit="10" stroke-width="1"/>
        <line id="Line_98" data-name="Line 98" x2="1.648" y2="0.004" transform="translate(41.299 62.263)" fill="#999" stroke="#fff" stroke-miterlimit="10" stroke-width="1"/>
        <line id="Line_99" data-name="Line 99" x2="1.648" y2="0.004" transform="translate(41.297 63.514)" fill="#999" stroke="#fff" stroke-miterlimit="10" stroke-width="1"/>
        <line id="Line_100" data-name="Line 100" x2="2.573" y2="0.005" transform="translate(41.293 64.767)" fill="#999" stroke="#fff" stroke-miterlimit="10" stroke-width="1"/>
        <line id="Line_101" data-name="Line 101" x2="1.648" y2="0.004" transform="translate(41.291 66.018)" fill="#999" stroke="#fff" stroke-miterlimit="10" stroke-width="1"/>
        <line id="Line_102" data-name="Line 102" x2="1.648" y2="0.004" transform="translate(41.288 67.269)" fill="#999" stroke="#fff" stroke-miterlimit="10" stroke-width="1"/>
        <line id="Line_103" data-name="Line 103" x2="1.648" y2="0.004" transform="translate(41.286 68.522)" fill="#999" stroke="#fff" stroke-miterlimit="10" stroke-width="1"/>
        <line id="Line_104" data-name="Line 104" x2="1.65" y2="0.004" transform="translate(41.282 69.773)" fill="#999" stroke="#fff" stroke-miterlimit="10" stroke-width="1"/>
        <line id="Line_105" data-name="Line 105" x2="2.573" y2="0.006" transform="translate(41.279 71.024)" fill="#999" stroke="#fff" stroke-miterlimit="10" stroke-width="1"/>
        <line id="Line_106" data-name="Line 106" x2="1.648" y2="0.004" transform="translate(41.277 72.277)" fill="#999" stroke="#fff" stroke-miterlimit="10" stroke-width="1"/>
        <line id="Line_107" data-name="Line 107" x2="1.648" y2="0.004" transform="translate(41.274 73.528)" fill="#999" stroke="#fff" stroke-miterlimit="10" stroke-width="1"/>
        <line id="Line_108" data-name="Line 108" x2="1.65" y2="0.004" transform="translate(41.271 74.779)" fill="#999" stroke="#fff" stroke-miterlimit="10" stroke-width="1"/>
        <line id="Line_109" data-name="Line 109" x2="2.573" y2="0.005" transform="translate(41.268 76.032)" fill="#999" stroke="#fff" stroke-miterlimit="10" stroke-width="1"/>
      </g>
    </g>
  </g>
</svg>
