<svg xmlns="http://www.w3.org/2000/svg" width="27.703" height="24.24" viewBox="0 0 27.703 24.24">
  <path id="ruler" d="M26.837,30.529H.866A.865.865,0,0,0,0,31.395V53.9a.865.865,0,0,0,.866.866H9.523a.865.865,0,0,0,.866-.866V40.917H26.837a.865.865,0,0,0,.866-.866V31.395A.865.865,0,0,0,26.837,30.529ZM8.657,53.037H1.731V51.306l1.731,0,0-1.731-1.731,0V46.112H5.194V44.38H1.731V40.918l1.731,0,0-1.731-1.731,0V35.723H5.194V33.992H1.731V32.26H8.657ZM25.971,39.186H10.388V32.26H12.12v1.731h1.731V32.26h3.463v3.463h1.731V32.26h3.463v1.731H24.24V32.26h1.731v6.926Z" transform="translate(0 -30.529)" fill="#262014"/>
</svg>
