<svg xmlns="http://www.w3.org/2000/svg" width="28.419" height="29.023" viewBox="0 0 28.419 29.023">
  <g id="starred-list-on-paper" transform="translate(0 -0.003)">
    <g id="Group_384" data-name="Group 384" transform="translate(0 0.003)">
      <path id="Path_153" data-name="Path 153" d="M27.06,0H1.36A1.375,1.375,0,0,0,0,1.391V27.637a1.376,1.376,0,0,0,1.36,1.389h25.7a1.374,1.374,0,0,0,1.359-1.389V1.392A1.374,1.374,0,0,0,27.06,0ZM9.453,22.453l-.864.86.2,1.214a.933.933,0,0,1-.36.906.892.892,0,0,1-.956.07L6.41,24.93,5.343,25.5a.893.893,0,0,1-.955-.07.937.937,0,0,1-.361-.906l.2-1.214-.864-.86a.94.94,0,0,1-.229-.948.912.912,0,0,1,.731-.63l1.2-.178.534-1.1a.932.932,0,0,1,1.625,0l.535,1.1,1.193.178a.912.912,0,0,1,.732.63A.941.941,0,0,1,9.453,22.453Zm0-7.407-.864.86.2,1.214a.933.933,0,0,1-.36.906.89.89,0,0,1-.956.069L6.41,17.522,5.343,18.1a.89.89,0,0,1-.955-.069.937.937,0,0,1-.361-.906l.2-1.214-.864-.86a.94.94,0,0,1-.229-.948.911.911,0,0,1,.731-.63l1.2-.178.534-1.1a.933.933,0,0,1,1.625,0l.535,1.1,1.193.178a.912.912,0,0,1,.732.63A.941.941,0,0,1,9.453,15.046Zm0-7.407-.864.86.2,1.214a.934.934,0,0,1-.36.906.9.9,0,0,1-.956.069L6.41,10.116l-1.067.574a.9.9,0,0,1-.955-.069.938.938,0,0,1-.361-.906l.2-1.214-.864-.86a.94.94,0,0,1-.229-.949.913.913,0,0,1,.731-.631l1.2-.177.534-1.1a.933.933,0,0,1,1.625,0l.535,1.1,1.193.177a.912.912,0,0,1,.732.631A.942.942,0,0,1,9.453,7.639ZM21.56,23.27H11.421a.926.926,0,0,1,0-1.852H21.56a.926.926,0,0,1,0,1.852Zm0-7.408H11.421a.926.926,0,0,1,0-1.852H21.56a.926.926,0,0,1,0,1.852Zm0-7.407H11.421a.926.926,0,0,1,0-1.852H21.56a.926.926,0,0,1,0,1.852Z" transform="translate(0 -0.003)" fill="#f29f05"/>
      <path id="Path_154" data-name="Path 154" d="M41.306,49.381l-.744,1.508-1.666.243,1.2,1.174-.284,1.659,1.489-.784,1.489.784-.284-1.659,1.2-1.174-1.665-.243Zm.3,2.944a.9.9,0,0,0-.6,0,.916.916,0,0,0-.186-.568.9.9,0,0,0,.483-.351.9.9,0,0,0,.484.351A.908.908,0,0,0,41.605,52.325Z" transform="translate(-34.897 -44.175)" fill="#f29f05"/>
      <path id="Path_155" data-name="Path 155" d="M41.306,119.913l-.744,1.509-1.666.243,1.2,1.174-.284,1.659,1.489-.783,1.489.783-.284-1.659,1.2-1.174-1.665-.243Zm.3,2.945a.916.916,0,0,0-.3-.051.88.88,0,0,0-.3.051.912.912,0,0,0-.186-.568.9.9,0,0,0,.483-.351.9.9,0,0,0,.484.351A.9.9,0,0,0,41.605,122.858Z" transform="translate(-34.897 -107.27)" fill="#f29f05"/>
      <path id="Path_156" data-name="Path 156" d="M41.306,190.451l-.744,1.508L38.9,192.2l1.2,1.174-.284,1.66,1.489-.784,1.489.784-.284-1.66,1.2-1.174-1.665-.243Zm.3,2.944a.916.916,0,0,0-.3-.051.9.9,0,0,0-.3.051.912.912,0,0,0-.186-.568.9.9,0,0,0,.483-.351.9.9,0,0,0,.484.351A.908.908,0,0,0,41.605,193.395Z" transform="translate(-34.897 -170.263)" fill="#f29f05"/>
    </g>
  </g>
</svg>
