<svg id="tape-measure" xmlns="http://www.w3.org/2000/svg" width="27.773" height="18.719" viewBox="0 0 27.773 18.719">
  <path id="Path_77" data-name="Path 77" d="M27.517,90.424V81.981a1.209,1.209,0,0,0-.051-.347,1.381,1.381,0,0,1,.167-.029,8.2,8.2,0,0,0-7.96-6.883,8.276,8.276,0,0,0-8.1,8.441v6.12H.545V87.922a.272.272,0,0,0-.545,0v5.242a.272.272,0,0,0,.2.263v.009H14.155c.047,0,.093.007.14.007H25.051a2.723,2.723,0,0,0,2.723-2.723v-.273A1.4,1.4,0,0,1,27.517,90.424ZM.748,92.891V89.828H1.7v1.5h.182v-1.5h.338v.863h.174v-.863h.414v.863h.174v-.863h.442v.863H3.6v-.863h.414v.863h.174v-.863h.328v1.5H4.7v-1.5h.392v.863h.174v-.863h.414v.863H5.85v-.863h.442v.863h.174v-.863H6.88v.863h.174v-.863h.41v1.5h.182v-1.5h.339v.863h.174v-.863h.414v.863h.174v-.863h.442v.863h.174v-.863h.414v.863h.174v-.863h.327v1.5h.182v-1.5h1.112v.892a2.716,2.716,0,0,0,1.085,2.171H.748Zm18.72-13.267a3.4,3.4,0,1,1-3.4,3.4A3.4,3.4,0,0,1,19.468,79.624ZM14.635,90.97H14.25V89.828h.386Zm9.87,0H15.18V89.427h9.326ZM22.151,76.585l.4-.866c.125.058,3.061,1.434,3.841,3.969l-.911.28C24.826,77.845,22.177,76.6,22.151,76.585Zm4.958,13.7a3.7,3.7,0,0,1-1.582-2.49V84.255a3.736,3.736,0,0,1,1.555-2.476.785.785,0,0,1,.027.2Zm-.81-5.87c-.383,0-.59.806-.59,1.566s.207,1.566.59,1.566.589-.807.589-1.566S26.681,84.412,26.3,84.412Zm0,3c-.215,0-.454-.587-.454-1.429s.239-1.43.454-1.43.453.587.453,1.43S26.513,87.407,26.3,87.407Zm.066-2.523c.014.014.148.151.217.671l-.135.018a1.181,1.181,0,0,0-.176-.59Zm-8.28-1.856a1.384,1.384,0,1,1,1.384,1.384A1.384,1.384,0,0,1,18.084,83.028Z" transform="translate(0 -74.723)" fill="#ffedb7"/>
</svg>
