<svg xmlns="http://www.w3.org/2000/svg" width="33.291" height="35.666" viewBox="0 0 33.291 35.666">
  <path id="tool" d="M44.388,5.793,38.6,0,21.263,17.332a1.427,1.427,0,0,0-1.008-.418h0a1.426,1.426,0,0,0-1.008.418l-7.731,7.731a1.426,1.426,0,0,0,0,2.017l8.168,8.168a1.426,1.426,0,0,0,2.017,0l5.58-5.58a1.426,1.426,0,0,0,.361-1.406l-1.076-3.7,2.883-.76.962-3.652,3.652-.963.963-3.652,3.652-.963.963-3.652,3.652-.963,1.1-4.161Zm-23.7,26.43L14.54,26.072l5.714-5.713,2.991,3,1.421,4.894Z" transform="translate(-11.097 0)" fill="#ffedb7"/>
</svg>
