<svg xmlns="http://www.w3.org/2000/svg" width="26.655" height="26.566" viewBox="0 0 26.655 26.566">
  <g id="toolbox" transform="translate(0 0)">
    <g id="Group_277" data-name="Group 277" transform="translate(0 0)">
      <path id="Path_72" data-name="Path 72" d="M3.961,43.248c.052-.026.1-.053.152-.081a.851.851,0,0,0,.082.095l2.88,2.881a.956.956,0,0,1,1.008-.3l.359.107.224-.752-3.2-3.2a.9.9,0,0,0-.164-.128l.008-.033a.811.811,0,0,1,.027-.08c.007-.02.015-.04.022-.062s.019-.043.028-.066c.016-.039.033-.081.055-.123l.06-.122.068-.121a1.613,1.613,0,0,1,.1-.159l.06-.09.055-.074a2.161,2.161,0,0,1,.137-.17l.033-.036a2.016,2.016,0,0,1,.2-.2l.059-.053c.025-.023.049-.046.076-.067l.14-.1a.053.053,0,0,0,.011-.009,1.434,1.434,0,0,1,.2-.123l.085-.048a1.079,1.079,0,0,1,.188-.09l.1-.042.058-.025a.474.474,0,0,1,.062-.024l.154-.043.1-.028a1.061,1.061,0,0,1,.131-.033l.413-.06a.276.276,0,0,0,.154-.077.274.274,0,0,0-.117-.456l-.407-.116a1.539,1.539,0,0,0-.218-.043l-.1-.016-.178-.028a1.082,1.082,0,0,0-.155-.011l-.056,0c-.047,0-.08,0-.115,0a1.981,1.981,0,0,0-.346.007l-.079.006a2.58,2.58,0,0,0-.393.054l-.22.045c-.068.017-.124.034-.181.052l-.069.021a3.768,3.768,0,0,0-.456.169l-.02.008c-.125.052-.239.112-.348.171l-.091.048-.018.01-.106.065c-.1.058-.194.117-.285.185l-.152.109-.022.017-.151.12c-.041.031-.078.063-.114.095a1.357,1.357,0,0,0-.741.381l-.323.322a2.258,2.258,0,0,0-.4.591c-.506-.1-1.192.65-2.216,1.673l2.289,2.288C3.074,44.679,4.059,43.754,3.961,43.248Z" transform="translate(0 -36.752)" fill="#ffedb7"/>
      <path id="Path_73" data-name="Path 73" d="M361.85,64.011l1.442.279,1.468-1.853a1.124,1.124,0,0,1,1.13-.392v-.8h-2.168v1.734h-2.335Z" transform="translate(-339.94 -57.656)" fill="#ffedb7"/>
      <path id="Path_74" data-name="Path 74" d="M124.936,91.961l.445-1.5h-1.943Z" transform="translate(-116.112 -85.138)" fill="#ffedb7"/>
      <path id="Path_75" data-name="Path 75" d="M55.055,15.39V9.836c-.039.053-.078.107-.119.16a4.837,4.837,0,0,1-2.3,1.6h.253V15.39H47.081L49.8,11.68a2.371,2.371,0,0,0,.137-.2,4.11,4.11,0,0,0,5.033-4.809.355.355,0,0,0-.626-.15L52.592,8.74,50.311,8.3l-.952-2.119,1.755-2.215a.355.355,0,0,0-.288-.575,4.11,4.11,0,0,0-3.532,6c-.054.057-.108.118-.159.182l-3.522,4.189.852.852a1.787,1.787,0,0,1,.458.78h-.38a1.423,1.423,0,0,0-.333-.524l-4.848-4.849-.126.423.328.1a.964.964,0,0,1,.65,1.2.968.968,0,0,1-.2.358,1.685,1.685,0,0,1-.061.677l-.435,1.466,1.153,1.152H38.688l.856-2.882a1.253,1.253,0,0,0,0-.724.513.513,0,0,0-.087-.949l-.761-.227,2.068-6.961.065.019.536-1.037.21-1.618L40.681.746,39.986,2.22l-.112,1.163.066.02-2.068,6.962-.792-.235a.513.513,0,0,0-.6.725,1.259,1.259,0,0,0-.414.62L34.9,15.39H33.814V11.6h1.439l.257-.867a1.218,1.218,0,0,1,.238-.458L33.426,7.891A10.242,10.242,0,0,1,32.3,9.271l-.655.655V15.39h-.7v7.587a4.336,4.336,0,0,0,4.336,4.335H51.426a4.335,4.335,0,0,0,4.335-4.335V15.39ZM38.04,12.7a.545.545,0,1,1,1.044.31l-.708,2.384H37.239Zm-1.756-.521a.545.545,0,1,1,1.044.31l-.863,2.906H35.329Z" transform="translate(-29.106 -0.746)" fill="#ffedb7"/>
      <path id="Path_76" data-name="Path 76" d="M184.636,90.461l-.839,2.823,2.7,2.7h1.45l2.411-2.868a4.89,4.89,0,0,1-.242-2.659h-5.485Z" transform="translate(-172.889 -85.137)" fill="#ffedb7"/>
    </g>
  </g>
</svg>
