<svg xmlns="http://www.w3.org/2000/svg" width="20.842" height="30.43" viewBox="0 0 20.842 30.43">
  <path id="tool_2_" data-name="tool (2)" d="M69.532,11.2H63.661a.761.761,0,1,0,0,1.522h2.174v6.849H55.576L53.8,17.791V6.126l1.777-1.777h7.045L64.4,6.126V7.583h-.737a.761.761,0,1,0,0,1.522h5.871a.761.761,0,1,0,0-1.522h-.785V4.324L64.423,0H53.775L49.451,4.324V19.592l4.324,4.324H65.836v3.328H61.43a.761.761,0,1,0,0,1.522h4.406v.9a.761.761,0,1,0,1.522,0v-.9h.761a.761.761,0,1,0,0-1.522h-.761V23.917h2.687V19.568H67.358V12.719h2.174a.761.761,0,1,0,0-1.522Z" transform="translate(-49.451 0)" fill="#ffedb7"/>
</svg>
