<svg xmlns="http://www.w3.org/2000/svg" width="31.768" height="29.64" viewBox="0 0 31.768 29.64">
  <path id="tool" d="M28.095,17.738l1.331-1.331a.733.733,0,0,0,0-1.036l-4.455-4.455a.732.732,0,0,0-1.036,0l-8.609,8.608a.733.733,0,0,0,0,1.036l.984.984L14.257,23.6a3.887,3.887,0,0,0-3.951.946L1.137,33.713A3.883,3.883,0,0,0,6.628,39.2L15.8,30.035a3.888,3.888,0,0,0,.946-3.95L18.8,24.032l.984.984a.733.733,0,0,0,1.036,0l1.331-1.331,3.673,3.673,5.947-5.947Z" transform="translate(0 -10.701)" fill="#ffedb7"/>
</svg>
